<?xml version="1.0" encoding="UTF-8"?>
<svg xmlns="http://www.w3.org/2000/svg" xmlns:xlink="http://www.w3.org/1999/xlink" width="85px" height="85px" viewBox="0 0 85 85" version="1.1">
<g id="surface1">
<path style=" stroke:none;fill-rule:nonzero;fill:rgb(100%,27.843137%,24.313725%);fill-opacity:1;" d="M 83.179688 57.054688 C 78.433594 76.738281 56.414062 88.316406 34 82.910156 C 11.585938 77.503906 -2.734375 57.160156 2.015625 37.476562 C 6.761719 17.789062 28.78125 6.214844 51.195312 11.621094 C 73.609375 17.027344 87.929688 37.367188 83.179688 57.054688 Z M 83.179688 57.054688 "/>
<path style=" stroke:none;fill-rule:nonzero;fill:rgb(16.862745%,64.705882%,18.039216%);fill-opacity:1;" d="M 59.964844 20.113281 C 59.761719 20.15625 59.554688 20.132812 59.371094 20.042969 L 59.246094 19.980469 C 59.246094 19.980469 59.160156 19.933594 59.003906 19.84375 C 58.851562 19.753906 58.617188 19.628906 58.339844 19.449219 C 58.269531 19.40625 58.195312 19.359375 58.121094 19.3125 L 58.007812 19.234375 L 57.886719 19.175781 C 57.726562 19.09375 57.5625 19.003906 57.386719 18.910156 C 57.203125 18.824219 57.046875 18.714844 56.839844 18.621094 C 56.636719 18.527344 56.4375 18.421875 56.226562 18.316406 C 56.117188 18.269531 56.023438 18.203125 55.910156 18.160156 L 55.578125 18.019531 C 55.464844 17.976562 55.355469 17.925781 55.246094 17.875 L 55.078125 17.800781 C 55.023438 17.777344 54.964844 17.761719 54.90625 17.738281 C 54.667969 17.664062 54.441406 17.570312 54.210938 17.488281 C 53.972656 17.421875 53.734375 17.351562 53.496094 17.28125 L 53.320312 17.226562 C 53.257812 17.214844 53.195312 17.203125 53.132812 17.1875 L 52.765625 17.105469 C 52.644531 17.078125 52.527344 17.042969 52.402344 17.023438 L 52.023438 16.957031 L 51.648438 16.890625 L 51.554688 16.871094 L 51.453125 16.863281 L 51.257812 16.835938 L 50.871094 16.785156 C 50.738281 16.769531 50.617188 16.742188 50.476562 16.738281 C 50.339844 16.726562 50.207031 16.714844 50.070312 16.699219 C 49.941406 16.675781 49.804688 16.660156 49.675781 16.632812 C 49.410156 16.589844 49.128906 16.554688 48.863281 16.480469 C 48.726562 16.453125 48.597656 16.40625 48.460938 16.371094 C 48.324219 16.332031 48.183594 16.304688 48.046875 16.257812 C 47.773438 16.175781 47.503906 16.070312 47.230469 15.96875 C 46.953125 15.871094 46.675781 15.773438 46.402344 15.671875 C 46.128906 15.570312 45.859375 15.464844 45.585938 15.386719 C 45.222656 15.273438 44.855469 15.15625 44.492188 15.035156 C 44.402344 15.140625 44.3125 15.246094 44.21875 15.347656 C 44.058594 15.507812 43.949219 15.683594 43.808594 15.835938 C 43.679688 15.992188 43.5625 16.140625 43.441406 16.273438 C 43.347656 16.402344 43.25 16.523438 43.148438 16.648438 C 43.074219 16.738281 43 16.828125 42.921875 16.917969 C 42.84375 17.121094 42.761719 17.320312 42.675781 17.519531 C 42.523438 17.863281 42.367188 18.207031 42.199219 18.542969 C 42.15625 18.632812 42.109375 18.722656 42.0625 18.8125 C 42.019531 18.910156 41.96875 19 41.921875 19.09375 C 41.613281 19.6875 41.285156 20.269531 40.9375 20.839844 C 40.460938 21.632812 39.949219 22.410156 39.40625 23.164062 C 39.136719 23.535156 38.867188 23.890625 38.597656 24.226562 C 38.339844 24.550781 38.078125 24.863281 37.804688 25.171875 C 37.292969 25.753906 36.816406 26.230469 36.464844 26.558594 C 36.289062 26.722656 36.136719 26.847656 36.039062 26.933594 C 35.988281 26.976562 35.945312 27.007812 35.921875 27.03125 L 35.878906 27.058594 L 35.75 27.15625 C 34.980469 27.730469 33.894531 27.570312 33.324219 26.800781 C 33.203125 26.636719 33.109375 26.453125 33.050781 26.257812 L 32.988281 26.046875 C 32.957031 25.917969 32.894531 25.71875 32.84375 25.476562 C 32.777344 25.1875 32.722656 24.898438 32.675781 24.609375 C 32.617188 24.238281 32.574219 23.867188 32.539062 23.496094 C 32.503906 23.09375 32.480469 22.660156 32.476562 22.203125 C 32.464844 21.746094 32.476562 21.269531 32.507812 20.78125 C 32.535156 20.289062 32.585938 19.785156 32.65625 19.277344 C 32.726562 18.769531 32.816406 18.253906 32.929688 17.742188 C 33.042969 17.230469 33.171875 16.722656 33.328125 16.226562 C 33.386719 16.039062 33.449219 15.851562 33.515625 15.667969 C 33.332031 15.699219 33.144531 15.730469 32.957031 15.761719 C 32.351562 15.875 31.738281 16.007812 31.121094 16.148438 C 30.5 16.289062 29.878906 16.449219 29.253906 16.613281 C 28.636719 16.785156 28.011719 16.957031 27.398438 17.136719 C 26.792969 17.324219 26.183594 17.5 25.601562 17.691406 C 25.011719 17.871094 24.453125 18.066406 23.90625 18.238281 L 22.394531 18.753906 C 22.175781 18.835938 21.957031 18.914062 21.734375 18.984375 C 21.523438 19.054688 21.351562 19.117188 21.171875 19.171875 C 20.996094 19.230469 20.835938 19.277344 20.683594 19.34375 C 20.535156 19.402344 20.40625 19.449219 20.296875 19.488281 C 20.085938 19.566406 19.964844 19.597656 19.964844 19.597656 C 19.621094 19.699219 19.25 19.621094 18.96875 19.394531 C 18.691406 19.167969 18.539062 18.820312 18.566406 18.464844 C 18.566406 18.464844 18.574219 18.335938 18.605469 18.113281 C 18.621094 18.003906 18.640625 17.863281 18.667969 17.707031 C 18.6875 17.628906 18.691406 17.546875 18.722656 17.449219 L 18.8125 17.148438 C 18.871094 16.9375 18.957031 16.695312 19.046875 16.453125 C 19.148438 16.191406 19.253906 15.929688 19.371094 15.675781 C 19.507812 15.390625 19.652344 15.105469 19.804688 14.828125 C 19.984375 14.527344 20.171875 14.226562 20.367188 13.9375 C 20.785156 13.335938 21.285156 12.707031 21.882812 12.113281 C 22.46875 11.507812 23.160156 10.9375 23.914062 10.402344 C 24.703125 9.855469 25.539062 9.386719 26.410156 8.992188 C 27.3125 8.597656 28.265625 8.273438 29.253906 8.039062 C 30.242188 7.820312 31.257812 7.6875 32.269531 7.660156 C 32.976562 7.644531 33.679688 7.679688 34.367188 7.765625 C 34.242188 7.539062 34.105469 7.316406 33.953125 7.105469 C 33.863281 6.972656 33.75 6.835938 33.644531 6.691406 C 33.519531 6.550781 33.40625 6.40625 33.269531 6.253906 C 33.011719 5.960938 32.714844 5.65625 32.421875 5.355469 L 31.539062 4.464844 C 31.265625 4.191406 30.996094 3.914062 30.726562 3.636719 C 30.484375 3.375 30.269531 3.144531 30.09375 2.9375 C 29.898438 2.738281 29.753906 2.550781 29.652344 2.4375 C 29.601562 2.378906 29.5625 2.328125 29.539062 2.296875 L 29.5 2.246094 L 29.417969 2.140625 C 29.214844 1.878906 29.15625 1.535156 29.261719 1.222656 C 29.363281 0.910156 29.617188 0.671875 29.933594 0.585938 C 29.933594 0.585938 30.007812 0.5625 30.148438 0.53125 C 30.289062 0.503906 30.496094 0.449219 30.753906 0.402344 C 31.023438 0.363281 31.363281 0.304688 31.738281 0.273438 L 32.34375 0.21875 C 32.554688 0.207031 32.777344 0.207031 33.015625 0.199219 C 33.25 0.195312 33.5 0.203125 33.761719 0.203125 C 34.019531 0.207031 34.289062 0.238281 34.570312 0.257812 C 35.128906 0.320312 35.726562 0.40625 36.363281 0.578125 C 37 0.742188 37.671875 0.96875 38.355469 1.3125 C 39.042969 1.644531 39.738281 2.09375 40.398438 2.652344 C 40.5625 2.792969 40.726562 2.9375 40.890625 3.085938 C 41.046875 3.238281 41.203125 3.398438 41.355469 3.558594 C 41.507812 3.722656 41.65625 3.886719 41.800781 4.058594 C 41.949219 4.226562 42.082031 4.40625 42.21875 4.582031 C 42.535156 5.015625 42.820312 5.460938 43.0625 5.914062 C 43.277344 5.699219 43.503906 5.488281 43.742188 5.296875 C 44.140625 4.953125 44.574219 4.664062 45.015625 4.375 C 45.238281 4.242188 45.464844 4.109375 45.691406 3.984375 C 45.921875 3.851562 46.15625 3.753906 46.390625 3.644531 C 47.332031 3.21875 48.304688 2.910156 49.265625 2.742188 C 50.222656 2.570312 51.167969 2.503906 52.066406 2.546875 C 52.960938 2.589844 53.8125 2.714844 54.59375 2.917969 C 55.375 3.113281 56.085938 3.386719 56.71875 3.679688 C 57.351562 3.988281 57.902344 4.3125 58.363281 4.65625 C 58.59375 4.828125 58.808594 4.980469 58.992188 5.15625 C 59.179688 5.320312 59.347656 5.464844 59.503906 5.628906 C 59.640625 5.761719 59.773438 5.902344 59.898438 6.046875 C 59.988281 6.167969 60.0625 6.273438 60.121094 6.363281 C 60.179688 6.449219 60.222656 6.523438 60.253906 6.570312 L 60.300781 6.644531 C 60.488281 6.945312 60.515625 7.316406 60.375 7.644531 C 60.234375 7.96875 59.945312 8.207031 59.597656 8.277344 L 59.515625 8.292969 C 59.460938 8.304688 59.375 8.324219 59.273438 8.339844 C 59.167969 8.359375 59.039062 8.378906 58.890625 8.398438 C 58.753906 8.433594 58.605469 8.46875 58.449219 8.507812 C 58.296875 8.546875 58.105469 8.585938 57.910156 8.632812 C 57.8125 8.65625 57.714844 8.675781 57.609375 8.699219 L 57.289062 8.773438 C 56.855469 8.875 56.375 8.992188 55.878906 9.113281 C 55.378906 9.246094 54.859375 9.375 54.332031 9.527344 C 54.070312 9.597656 53.804688 9.675781 53.539062 9.753906 L 53.640625 9.808594 C 54.023438 9.992188 54.390625 10.238281 54.753906 10.46875 L 55.285156 10.820312 C 55.457031 10.941406 55.625 11.085938 55.789062 11.214844 L 56.277344 11.609375 C 56.355469 11.675781 56.4375 11.738281 56.515625 11.804688 L 56.738281 12.019531 C 57.027344 12.304688 57.320312 12.570312 57.574219 12.859375 C 57.8125 13.148438 58.050781 13.441406 58.28125 13.734375 C 58.335938 13.804688 58.394531 13.871094 58.445312 13.945312 L 58.589844 14.164062 C 58.6875 14.308594 58.78125 14.449219 58.871094 14.589844 L 59.128906 15.007812 C 59.214844 15.140625 59.277344 15.285156 59.347656 15.417969 C 59.484375 15.6875 59.617188 15.941406 59.734375 16.183594 C 59.792969 16.304688 59.84375 16.429688 59.894531 16.554688 L 60.03125 16.910156 C 60.121094 17.136719 60.207031 17.347656 60.273438 17.546875 L 60.324219 17.6875 L 60.355469 17.820312 L 60.417969 18.0625 C 60.5 18.371094 60.550781 18.617188 60.59375 18.785156 L 60.648438 19.042969 C 60.753906 19.527344 60.449219 20.007812 59.964844 20.113281 Z M 59.964844 20.113281 "/>
<path style=" stroke:none;fill-rule:nonzero;fill:rgb(100%,53.333333%,53.333333%);fill-opacity:1;" d="M 72.417969 46.128906 C 70.355469 46.128906 68.453125 44.78125 67.839844 42.703125 C 66.277344 37.402344 63.480469 33.046875 59.964844 30.441406 C 57.847656 28.875 57.402344 25.882812 58.96875 23.765625 C 60.539062 21.648438 63.527344 21.199219 65.648438 22.769531 C 70.820312 26.601562 74.851562 32.722656 77 40.003906 C 77.746094 42.535156 76.296875 45.1875 73.769531 45.933594 C 73.332031 46.0625 72.875 46.128906 72.417969 46.128906 Z M 72.417969 46.128906 "/>
</g>
</svg>
