<?xml version="1.0" encoding="UTF-8"?>
<svg xmlns="http://www.w3.org/2000/svg" xmlns:xlink="http://www.w3.org/1999/xlink" width="43px" height="43px" viewBox="0 0 43 43" version="1.1">
<g id="surface1">
<path style=" stroke:none;fill-rule:nonzero;fill:rgb(18.823529%,32.156863%,3.529412%);fill-opacity:1;" d="M 26.621094 6.464844 C 25.015625 5.421875 23.132812 5.320312 21.5 5.960938 C 21.742188 7.824219 22.738281 9.53125 24.339844 10.574219 C 25.945312 11.617188 27.820312 11.746094 29.449219 11.105469 C 29.210938 9.242188 28.222656 7.507812 26.621094 6.464844 Z M 26.621094 6.464844 "/>
<path style=" stroke:none;fill-rule:nonzero;fill:rgb(33.333333%,23.921569%,17.647059%);fill-opacity:1;" d="M 32.746094 25.5 C 32.648438 25.5 32.546875 25.480469 32.453125 25.433594 L 29.429688 23.980469 C 23.847656 21.292969 20.632812 13.703125 20.722656 7.554688 L 18.957031 9.121094 C 14.792969 12.59375 11.921875 19.570312 10.914062 24.953125 C 10.847656 25.316406 10.496094 25.558594 10.132812 25.488281 C 9.765625 25.421875 9.527344 25.070312 9.59375 24.707031 C 10.566406 19.5 13.375 12.027344 18.082031 8.101562 L 21.046875 5.46875 C 21.046875 5.464844 21.050781 5.460938 21.054688 5.460938 L 25.492188 1.511719 C 25.769531 1.265625 26.195312 1.292969 26.441406 1.570312 C 26.6875 1.847656 26.660156 2.269531 26.386719 2.519531 L 22.140625 6.292969 C 21.550781 12.066406 24.589844 20.160156 30.011719 22.769531 L 33.035156 24.222656 C 33.371094 24.386719 33.511719 24.785156 33.351562 25.121094 C 33.234375 25.359375 32.996094 25.5 32.746094 25.5 Z M 32.746094 25.5 "/>
<path style=" stroke:none;fill-rule:nonzero;fill:rgb(87.45098%,16.862745%,16.862745%);fill-opacity:1;" d="M 13.003906 41.289062 C 15.308594 40.75 18.046875 37.753906 18.929688 34.671875 C 19.675781 32.25 19.609375 30.1875 19.324219 28.667969 C 18.785156 25.800781 16.476562 23.59375 13.675781 23.464844 C 13.578125 23.460938 13.476562 23.457031 13.375 23.457031 C 12.355469 23.457031 11.394531 23.703125 10.535156 24.132812 C 10.359375 24.222656 10.152344 24.222656 9.972656 24.132812 C 9.117188 23.703125 8.152344 23.457031 7.132812 23.457031 C 3.566406 23.457031 0.671875 26.078125 0.671875 30.089844 C 0.671875 35.628906 3.804688 43.445312 13.003906 41.289062 Z M 13.003906 41.289062 "/>
<path style=" stroke:none;fill-rule:nonzero;fill:rgb(81.960784%,14.901961%,17.254902%);fill-opacity:1;" d="M 6.921875 30.089844 C 6.921875 27.339844 8.28125 25.242188 10.285156 24.195312 C 10.179688 24.203125 10.070312 24.183594 9.972656 24.132812 C 9.117188 23.703125 8.152344 23.457031 7.132812 23.457031 C 3.566406 23.457031 0.671875 26.078125 0.671875 30.089844 C 0.671875 35.628906 3.804688 43.445312 13.003906 41.289062 C 13.113281 41.261719 13.226562 41.226562 13.339844 41.191406 C 8.660156 39.59375 6.921875 34.214844 6.921875 30.089844 Z M 6.921875 30.089844 "/>
<path style=" stroke:none;fill-rule:nonzero;fill:rgb(71.764706%,14.509804%,17.254902%);fill-opacity:1;" d="M 4.144531 30.089844 C 4.144531 26.773438 6.125 24.410156 8.828125 23.691406 C 8.285156 23.539062 7.71875 23.457031 7.132812 23.457031 C 3.566406 23.457031 0.671875 26.078125 0.671875 30.089844 C 0.671875 35.382812 3.539062 42.75 11.824219 41.511719 C 6.1875 40.519531 4.144531 34.5625 4.144531 30.089844 Z M 4.144531 30.089844 "/>
<path style=" stroke:none;fill-rule:nonzero;fill:rgb(97.647059%,86.27451%,78.039216%);fill-opacity:1;" d="M 4.585938 35.027344 C 4.292969 35.027344 4.027344 34.835938 3.941406 34.542969 C 3.535156 33.117188 3.320312 31.578125 3.320312 30.089844 C 3.320312 29.492188 3.378906 28.90625 3.496094 28.351562 C 3.574219 27.988281 3.929688 27.753906 4.292969 27.832031 C 4.65625 27.910156 4.890625 28.265625 4.8125 28.628906 C 4.710938 29.09375 4.664062 29.585938 4.664062 30.089844 C 4.664062 31.453125 4.859375 32.867188 5.234375 34.171875 C 5.335938 34.527344 5.128906 34.898438 4.773438 35.003906 C 4.710938 35.019531 4.648438 35.027344 4.585938 35.027344 Z M 4.585938 35.027344 "/>
<path style=" stroke:none;fill-rule:nonzero;fill:rgb(87.45098%,16.862745%,16.862745%);fill-opacity:1;" d="M 29.996094 41.289062 C 27.691406 40.75 24.953125 37.753906 24.070312 34.671875 C 23.324219 32.25 23.390625 30.1875 23.675781 28.667969 C 24.214844 25.800781 26.523438 23.59375 29.324219 23.464844 C 29.421875 23.460938 29.523438 23.457031 29.625 23.457031 C 30.644531 23.457031 31.605469 23.703125 32.464844 24.132812 C 32.640625 24.222656 32.847656 24.222656 33.027344 24.132812 C 33.882812 23.703125 34.847656 23.457031 35.867188 23.457031 C 39.433594 23.457031 42.328125 26.078125 42.328125 30.089844 C 42.328125 35.628906 39.195312 43.445312 29.996094 41.289062 Z M 29.996094 41.289062 "/>
<path style=" stroke:none;fill-rule:nonzero;fill:rgb(81.960784%,14.901961%,17.254902%);fill-opacity:1;" d="M 30.320312 34.671875 C 29.574219 32.25 29.640625 30.1875 29.925781 28.667969 C 30.460938 25.808594 33.792969 23.746094 33.027344 24.132812 C 32.847656 24.222656 32.640625 24.222656 32.464844 24.132812 C 31.605469 23.703125 30.644531 23.457031 29.625 23.457031 C 29.523438 23.457031 29.421875 23.460938 29.324219 23.464844 C 26.523438 23.597656 24.214844 25.800781 23.675781 28.667969 C 23.390625 30.1875 23.324219 32.25 24.070312 34.671875 C 24.953125 37.753906 27.691406 40.75 29.996094 41.289062 C 32.347656 41.839844 34.300781 41.738281 35.90625 41.191406 C 33.679688 40.457031 31.160156 37.605469 30.320312 34.671875 Z M 30.320312 34.671875 "/>
<path style=" stroke:none;fill-rule:nonzero;fill:rgb(71.764706%,14.509804%,17.254902%);fill-opacity:1;" d="M 33.46875 41.289062 C 31.164062 40.75 28.425781 37.753906 27.542969 34.671875 C 26.796875 32.25 26.863281 30.1875 27.148438 28.667969 C 27.59375 26.292969 29.253906 24.378906 31.398438 23.714844 C 30.835938 23.546875 30.238281 23.457031 29.625 23.457031 C 29.523438 23.457031 29.421875 23.460938 29.324219 23.464844 C 26.523438 23.597656 24.214844 25.800781 23.675781 28.667969 C 23.390625 30.1875 23.324219 32.25 24.070312 34.671875 C 24.953125 37.753906 27.691406 40.75 29.996094 41.289062 C 31.765625 41.703125 33.304688 41.746094 34.648438 41.511719 C 34.265625 41.453125 33.875 41.386719 33.46875 41.289062 Z M 33.46875 41.289062 "/>
<path style=" stroke:none;fill-rule:nonzero;fill:rgb(97.647059%,86.27451%,78.039216%);fill-opacity:1;" d="M 38.414062 35.027344 C 38.351562 35.027344 38.289062 35.019531 38.226562 35.003906 C 37.871094 34.898438 37.664062 34.527344 37.765625 34.171875 C 38.140625 32.867188 38.335938 31.453125 38.335938 30.089844 C 38.335938 29.585938 38.289062 29.09375 38.1875 28.628906 C 38.113281 28.265625 38.34375 27.910156 38.707031 27.832031 C 39.070312 27.753906 39.425781 27.988281 39.503906 28.351562 C 39.621094 28.90625 39.679688 29.492188 39.679688 30.089844 C 39.679688 31.578125 39.464844 33.117188 39.058594 34.539062 C 38.972656 34.835938 38.707031 35.027344 38.414062 35.027344 Z M 38.414062 35.027344 "/>
</g>
</svg>
