<?xml version="1.0" encoding="UTF-8"?>
<svg xmlns="http://www.w3.org/2000/svg" xmlns:xlink="http://www.w3.org/1999/xlink" width="110px" height="110px" viewBox="0 0 110 110" version="1.1">
<g id="surface1">
<path style=" stroke:none;fill-rule:nonzero;fill:rgb(64.705882%,92.156863%,47.058824%);fill-opacity:1;" d="M 74.414062 0.00390625 C 74.804688 -0.03125 75.203125 0.109375 75.484375 0.390625 C 75.765625 0.671875 75.90625 1.066406 75.871094 1.460938 C 74.796875 12.707031 65.839844 21.644531 54.570312 22.714844 C 54.527344 22.71875 54.484375 22.722656 54.441406 22.722656 C 54.089844 22.722656 53.75 22.582031 53.496094 22.328125 C 53.214844 22.046875 53.074219 21.65625 53.113281 21.257812 C 54.183594 10.011719 63.144531 1.074219 74.414062 0.00390625 Z M 74.414062 0.00390625 "/>
<path style=" stroke:none;fill-rule:nonzero;fill:rgb(54.901961%,84.313725%,43.137255%);fill-opacity:1;" d="M 54.570312 22.714844 C 54.527344 22.71875 54.484375 22.722656 54.441406 22.722656 C 54.089844 22.722656 53.75 22.582031 53.5 22.328125 L 75.457031 0.371094 C 75.464844 0.382812 75.476562 0.382812 75.484375 0.390625 C 75.765625 0.671875 75.90625 1.066406 75.871094 1.460938 C 74.796875 12.707031 65.839844 21.644531 54.570312 22.714844 Z M 54.570312 22.714844 "/>
<path style=" stroke:none;fill-rule:nonzero;fill:rgb(45.098039%,74.509804%,45.098039%);fill-opacity:1;" d="M 51.207031 26.570312 C 50.71875 26.570312 50.234375 26.382812 49.863281 26.011719 C 49.121094 25.269531 49.121094 24.070312 49.863281 23.328125 L 63.144531 10.046875 C 63.886719 9.304688 65.085938 9.304688 65.828125 10.046875 C 66.570312 10.789062 66.570312 11.988281 65.828125 12.730469 L 52.546875 26.011719 C 52.175781 26.382812 51.691406 26.570312 51.207031 26.570312 Z M 51.207031 26.570312 "/>
<path style=" stroke:none;fill-rule:nonzero;fill:rgb(100%,66.666667%,39.215686%);fill-opacity:1;" d="M 100.539062 64.460938 C 100.539062 89.609375 80.148438 110 55 110 C 29.847656 110 9.460938 89.609375 9.460938 64.460938 C 9.460938 39.308594 29.847656 18.921875 55 18.921875 C 80.148438 18.921875 100.539062 39.308594 100.539062 64.460938 Z M 100.539062 64.460938 "/>
<path style=" stroke:none;fill-rule:nonzero;fill:rgb(100%,56.862745%,29.411765%);fill-opacity:1;" d="M 77.769531 98.613281 C 52.617188 98.613281 32.230469 78.226562 32.230469 53.078125 C 32.230469 39.855469 37.953125 28.050781 46.953125 19.734375 C 25.65625 23.546875 9.460938 42.066406 9.460938 64.460938 C 9.460938 89.609375 29.851562 110 55 110 C 66.929688 110 77.695312 105.3125 85.816406 97.804688 C 83.195312 98.273438 80.527344 98.613281 77.769531 98.613281 Z M 77.769531 98.613281 "/>
<path style=" stroke:none;fill-rule:nonzero;fill:rgb(100%,56.862745%,29.411765%);fill-opacity:1;" d="M 62.589844 36.949219 C 62.589844 38.519531 61.316406 39.792969 59.742188 39.792969 C 58.171875 39.792969 56.898438 38.519531 56.898438 36.949219 C 56.898438 35.375 58.171875 34.101562 59.742188 34.101562 C 61.316406 34.101562 62.589844 35.375 62.589844 36.949219 Z M 62.589844 36.949219 "/>
<path style=" stroke:none;fill-rule:nonzero;fill:rgb(100%,56.862745%,29.411765%);fill-opacity:1;" d="M 89.152344 78.691406 C 89.152344 80.261719 87.878906 81.539062 86.308594 81.539062 C 84.734375 81.539062 83.460938 80.261719 83.460938 78.691406 C 83.460938 77.121094 84.734375 75.84375 86.308594 75.84375 C 87.878906 75.84375 89.152344 77.121094 89.152344 78.691406 Z M 89.152344 78.691406 "/>
<path style=" stroke:none;fill-rule:nonzero;fill:rgb(100%,56.862745%,29.411765%);fill-opacity:1;" d="M 70.179688 43.589844 C 70.179688 44.636719 69.332031 45.488281 68.28125 45.488281 C 67.234375 45.488281 66.382812 44.636719 66.382812 43.589844 C 66.382812 42.539062 67.234375 41.691406 68.28125 41.691406 C 69.332031 41.691406 70.179688 42.539062 70.179688 43.589844 Z M 70.179688 43.589844 "/>
<path style=" stroke:none;fill-rule:nonzero;fill:rgb(100%,56.862745%,29.411765%);fill-opacity:1;" d="M 87.257812 68.253906 C 87.257812 69.304688 86.40625 70.152344 85.359375 70.152344 C 84.3125 70.152344 83.460938 69.304688 83.460938 68.253906 C 83.460938 67.207031 84.3125 66.359375 85.359375 66.359375 C 86.40625 66.359375 87.257812 67.207031 87.257812 68.253906 Z M 87.257812 68.253906 "/>
<path style=" stroke:none;fill-rule:nonzero;fill:rgb(100%,56.862745%,29.411765%);fill-opacity:1;" d="M 77.769531 87.230469 C 77.769531 88.277344 76.917969 89.128906 75.871094 89.128906 C 74.824219 89.128906 73.972656 88.277344 73.972656 87.230469 C 73.972656 86.183594 74.824219 85.332031 75.871094 85.332031 C 76.917969 85.332031 77.769531 86.183594 77.769531 87.230469 Z M 77.769531 87.230469 "/>
</g>
</svg>
