<?xml version="1.0" encoding="UTF-8"?>
<svg xmlns="http://www.w3.org/2000/svg" xmlns:xlink="http://www.w3.org/1999/xlink" width="193px" height="193px" viewBox="0 0 193 193" version="1.1">
<g id="surface1">
<path style=" stroke:none;fill-rule:nonzero;fill:rgb(55.686275%,38.431373%,26.666667%);fill-opacity:1;" d="M 103.738281 27.441406 C 103.738281 20.507812 93.484375 19.300781 93.484375 25.933594 C 93.484375 33.773438 89.261719 36.789062 89.261719 41.011719 C 89.261719 46.441406 101.324219 47.34375 101.324219 41.617188 C 101.324219 36.1875 103.738281 36.789062 103.738281 27.441406 "/>
<path style=" stroke:none;fill-rule:nonzero;fill:rgb(65.882353%,45.490196%,31.764706%);fill-opacity:1;" d="M 99.816406 26.539062 C 108.261719 26.539062 92.882812 15.679688 92.882812 25.632812 C 92.882812 33.472656 87.152344 37.394531 89.5625 42.519531 C 94.992188 35.886719 91.070312 26.539062 99.816406 26.539062 "/>
<path style=" stroke:none;fill-rule:nonzero;fill:rgb(100%,58.039216%,38.823529%);fill-opacity:1;" d="M 13.269531 98.609375 C 13.269531 49.757812 53.074219 19.902344 95.292969 42.820312 C 138.71875 20.808594 186.96875 49.757812 186.96875 98.609375 C 186.96875 142.335938 162.84375 167.066406 132.6875 178.222656 C 121.832031 182.144531 101.324219 187.269531 89.867188 186.96875 C 81.421875 186.667969 81.722656 182.445312 73.582031 180.03125 C 40.710938 170.382812 13.269531 145.050781 13.269531 98.609375 "/>
<path style=" stroke:none;fill-rule:nonzero;fill:rgb(54.901961%,77.647059%,24.313725%);fill-opacity:1;" d="M 97.707031 25.03125 C 97.40625 25.03125 97.101562 24.726562 96.800781 24.425781 C 90.769531 15.378906 85.039062 17.492188 85.039062 17.492188 L 84.4375 14.476562 C 84.4375 14.476562 91.675781 12.0625 98.914062 22.316406 C 99.214844 22.917969 99.214844 24.125 98.914062 24.425781 C 98.308594 25.03125 98.007812 25.03125 97.707031 25.03125 "/>
<path style=" stroke:none;fill-rule:nonzero;fill:rgb(49.803922%,70.980392%,22.352941%);fill-opacity:1;" d="M 73.28125 6.332031 C 43.125 3.316406 12.0625 37.996094 12.0625 37.996094 C 12.0625 37.996094 33.171875 30.15625 51.265625 33.773438 C 69.660156 37.695312 85.945312 15.679688 85.945312 15.679688 C 85.945312 15.679688 81.722656 6.9375 73.28125 6.332031 Z M 73.28125 6.332031 "/>
<path style=" stroke:none;fill-rule:nonzero;fill:rgb(54.901961%,77.647059%,24.313725%);fill-opacity:1;" d="M 45.234375 30.15625 C 29.554688 51.265625 6.03125 63.328125 6.03125 63.328125 C 6.03125 63.328125 50.964844 67.851562 78.105469 36.789062 C 85.945312 28.046875 85.945312 15.378906 85.945312 15.378906 C 85.945312 15.378906 61.21875 8.746094 45.234375 30.15625 Z M 45.234375 30.15625 "/>
<path style=" stroke:none;fill-rule:nonzero;fill:rgb(49.803922%,70.980392%,22.352941%);fill-opacity:1;" d="M 85.945312 15.378906 C 82.929688 15.984375 79.3125 16.886719 75.992188 18.394531 C 72.375 19.902344 69.058594 21.710938 65.4375 24.125 C 58.503906 28.648438 51.867188 34.378906 45.835938 39.503906 C 39.503906 44.933594 33.171875 49.757812 26.539062 53.980469 C 19.601562 57.597656 12.96875 60.914062 6.03125 63.328125 C 9.347656 62.421875 12.664062 61.519531 15.984375 60.011719 C 19.300781 58.503906 22.917969 56.996094 26.539062 54.882812 C 33.773438 50.964844 40.410156 45.535156 46.742188 40.410156 C 53.074219 34.980469 59.105469 29.554688 65.742188 25.03125 C 72.375 20.507812 79.3125 17.492188 85.945312 15.378906 "/>
<path style=" stroke:none;fill-rule:nonzero;fill:rgb(85.098039%,45.490196%,28.235294%);fill-opacity:1;" d="M 122.132812 102.230469 C 123.339844 113.085938 123.039062 123.640625 120.023438 133.894531 C 117.007812 144.148438 111.578125 153.496094 102.53125 161.636719 C 115.195312 156.8125 124.546875 147.464844 129.371094 136.910156 C 134.496094 126.355469 136.003906 114.292969 134.496094 102.53125 C 132.988281 90.769531 128.765625 78.707031 121.53125 67.851562 C 114.59375 56.996094 104.039062 46.441406 90.46875 40.410156 C 101.023438 49.457031 107.65625 59.710938 112.785156 70.265625 C 117.609375 80.515625 120.625 91.375 122.132812 102.230469 "/>
</g>
</svg>
