<?xml version="1.0" encoding="UTF-8"?>
<svg xmlns="http://www.w3.org/2000/svg" xmlns:xlink="http://www.w3.org/1999/xlink" width="160px" height="160px" viewBox="0 0 160 160" version="1.1">
<g id="surface1">
<path style=" stroke:none;fill-rule:nonzero;fill:rgb(100%,76.862745%,0%);fill-opacity:1;" d="M 33.332031 111.667969 C 33.332031 132.835938 54.226562 150 80 150 C 105.773438 150 126.667969 132.835938 126.667969 111.667969 C 126.667969 90.496094 105.773438 73.332031 80 73.332031 C 54.226562 73.332031 33.332031 90.496094 33.332031 111.667969 Z M 33.332031 111.667969 "/>
<path style=" stroke:none;fill-rule:nonzero;fill:rgb(100%,76.862745%,0%);fill-opacity:1;" d="M 126.667969 113.332031 C 126.667969 86.667969 106.667969 80 103.332031 60 C 101.214844 47.289062 92.886719 36.667969 80 36.667969 C 67.113281 36.667969 58.785156 47.289062 56.667969 60 C 53.332031 80 33.332031 86.667969 33.332031 113.332031 "/>
<path style=" stroke:none;fill-rule:nonzero;fill:rgb(100%,100%,100%);fill-opacity:1;" d="M 90 16.667969 C 90 16.667969 80 26.667969 80 43.332031 "/>
<path style=" stroke:none;fill-rule:nonzero;fill:rgb(47.45098%,33.333333%,28.235294%);fill-opacity:1;" d="M 76.667969 43.332031 C 76.667969 45.175781 78.160156 46.667969 80 46.667969 C 81.839844 46.667969 83.332031 45.175781 83.332031 43.332031 C 83.332031 41.492188 81.839844 40 80 40 C 78.160156 40 76.667969 41.492188 76.667969 43.332031 Z M 76.667969 43.332031 "/>
<path style=" stroke:none;fill-rule:nonzero;fill:rgb(29.803922%,68.627451%,31.372549%);fill-opacity:1;" d="M 80 46.785156 C 80 46.785156 75.832031 5 33.332031 20 C 37.917969 63.472656 80 46.785156 80 46.785156 Z M 80 46.785156 "/>
<path style=" stroke:none;fill-rule:nonzero;fill:rgb(100%,67.058824%,0%);fill-opacity:1;" d="M 125.921875 105.058594 C 122.335938 85.027344 106.289062 77.742188 103.332031 60 C 101.621094 49.71875 95.84375 40.8125 86.878906 37.78125 C 94.132812 42.550781 96.667969 61.726562 96.667969 73.332031 C 96.667969 86.667969 110 93.332031 110 106.667969 C 110 120 96.667969 136.667969 76.667969 136.667969 C 39.644531 136.667969 34.035156 113.832031 33.402344 110.4375 C 33.390625 110.847656 33.332031 111.25 33.332031 111.667969 C 33.332031 111.910156 33.375 112.148438 33.378906 112.390625 C 33.375 112.714844 33.332031 113.003906 33.332031 113.332031 L 33.433594 113.332031 C 34.503906 133.722656 54.90625 150 80 150 C 105.09375 150 125.492188 133.722656 126.566406 113.332031 L 126.667969 113.332031 C 126.667969 113.003906 126.625 112.714844 126.621094 112.390625 C 126.625 112.148438 126.667969 111.910156 126.667969 111.667969 C 126.667969 109.40625 126.382812 107.207031 125.921875 105.058594 Z M 125.921875 105.058594 "/>
<path style=" stroke:none;fill-rule:nonzero;fill:rgb(100%,56.862745%,0%);fill-opacity:1;" d="M 96.667969 106.667969 C 96.667969 108.507812 98.160156 110 100 110 C 101.839844 110 103.332031 108.507812 103.332031 106.667969 C 103.332031 104.824219 101.839844 103.332031 100 103.332031 C 98.160156 103.332031 96.667969 104.824219 96.667969 106.667969 Z M 96.667969 106.667969 "/>
<path style=" stroke:none;fill-rule:nonzero;fill:rgb(100%,56.862745%,0%);fill-opacity:1;" d="M 83.332031 106.667969 C 83.332031 108.507812 84.824219 110 86.667969 110 C 88.507812 110 90 108.507812 90 106.667969 C 90 104.824219 88.507812 103.332031 86.667969 103.332031 C 84.824219 103.332031 83.332031 104.824219 83.332031 106.667969 Z M 83.332031 106.667969 "/>
<path style=" stroke:none;fill-rule:nonzero;fill:rgb(100%,56.862745%,0%);fill-opacity:1;" d="M 90 116.667969 C 90 118.507812 91.492188 120 93.332031 120 C 95.175781 120 96.667969 118.507812 96.667969 116.667969 C 96.667969 114.824219 95.175781 113.332031 93.332031 113.332031 C 91.492188 113.332031 90 114.824219 90 116.667969 Z M 90 116.667969 "/>
</g>
</svg>
