<?xml version="1.0" encoding="UTF-8"?>
<svg xmlns="http://www.w3.org/2000/svg" xmlns:xlink="http://www.w3.org/1999/xlink" width="72px" height="72px" viewBox="0 0 72 72" version="1.1">
<g id="surface1">
<path style=" stroke:none;fill-rule:nonzero;fill:rgb(18.823529%,32.156863%,3.529412%);fill-opacity:1;" d="M 36.929688 5.992188 C 35.074219 8.746094 34.847656 11.96875 35.988281 14.773438 C 39.300781 14.359375 42.378906 12.664062 44.234375 9.90625 C 46.089844 7.152344 46.320312 3.929688 45.175781 1.125 C 41.867188 1.539062 38.785156 3.234375 36.929688 5.992188 Z M 36.929688 5.992188 "/>
<path style=" stroke:none;fill-rule:nonzero;fill:rgb(38.823529%,15.294118%,11.372549%);fill-opacity:1;" d="M 36.238281 24.414062 C 35.617188 24.414062 35.113281 23.910156 35.113281 23.289062 L 35.113281 16.816406 C 35.113281 14.285156 33.789062 11.945312 31.570312 10.554688 C 31.042969 10.226562 30.886719 9.53125 31.214844 9.003906 C 31.546875 8.476562 32.238281 8.320312 32.765625 8.648438 C 35.644531 10.453125 37.363281 13.503906 37.363281 16.816406 L 37.363281 23.289062 C 37.363281 23.910156 36.859375 24.414062 36.238281 24.414062 Z M 36.238281 24.414062 "/>
<path style=" stroke:none;fill-rule:nonzero;fill:rgb(69.803922%,79.215686%,16.862745%);fill-opacity:1;" d="M 25.957031 23.90625 C 25.957031 20.359375 23.472656 17.484375 20.40625 17.484375 C 17.339844 17.484375 14.855469 20.359375 14.855469 23.90625 C 14.855469 27.457031 17.339844 30.332031 20.40625 30.332031 C 23.472656 30.332031 25.957031 27.457031 25.957031 23.90625 Z M 25.957031 23.90625 "/>
<path style=" stroke:none;fill-rule:nonzero;fill:rgb(68.627451%,76.078431%,5.882353%);fill-opacity:1;" d="M 36.238281 23.320312 C 36.238281 19.769531 33.753906 16.894531 30.6875 16.894531 C 27.621094 16.894531 25.136719 19.769531 25.136719 23.320312 C 25.136719 26.867188 27.621094 29.746094 30.6875 29.746094 C 33.753906 29.746094 36.238281 26.867188 36.238281 23.320312 Z M 36.238281 23.320312 "/>
<path style=" stroke:none;fill-rule:nonzero;fill:rgb(72.54902%,79.607843%,0%);fill-opacity:1;" d="M 46.132812 23.320312 C 46.132812 19.769531 43.648438 16.894531 40.582031 16.894531 C 37.519531 16.894531 35.03125 19.769531 35.03125 23.320312 C 35.03125 26.867188 37.519531 29.746094 40.582031 29.746094 C 43.648438 29.746094 46.132812 26.867188 46.132812 23.320312 Z M 46.132812 23.320312 "/>
<path style=" stroke:none;fill-rule:nonzero;fill:rgb(72.54902%,79.607843%,0%);fill-opacity:1;" d="M 55.984375 22.09375 C 55.984375 18.542969 53.496094 15.667969 50.433594 15.667969 C 47.367188 15.667969 44.882812 18.542969 44.882812 22.09375 C 44.882812 25.640625 47.367188 28.519531 50.433594 28.519531 C 53.496094 28.519531 55.984375 25.640625 55.984375 22.09375 Z M 55.984375 22.09375 "/>
<path style=" stroke:none;fill-rule:nonzero;fill:rgb(69.803922%,79.215686%,16.862745%);fill-opacity:1;" d="M 42.210938 31.960938 C 42.210938 28.378906 39.703125 25.472656 36.609375 25.472656 C 33.515625 25.472656 31.007812 28.378906 31.007812 31.960938 C 31.007812 35.542969 33.515625 38.445312 36.609375 38.445312 C 39.703125 38.445312 42.210938 35.542969 42.210938 31.960938 Z M 42.210938 31.960938 "/>
<path style=" stroke:none;fill-rule:nonzero;fill:rgb(68.627451%,76.078431%,5.882353%);fill-opacity:1;" d="M 51.886719 31.410156 C 51.886719 27.828125 49.378906 24.921875 46.285156 24.921875 C 43.1875 24.921875 40.679688 27.828125 40.679688 31.410156 C 40.679688 34.992188 43.1875 37.894531 46.285156 37.894531 C 49.378906 37.894531 51.886719 34.992188 51.886719 31.410156 Z M 51.886719 31.410156 "/>
<path style=" stroke:none;fill-rule:nonzero;fill:rgb(72.54902%,79.607843%,0%);fill-opacity:1;" d="M 32.0625 32.546875 C 32.0625 28.964844 29.554688 26.0625 26.460938 26.0625 C 23.367188 26.0625 20.859375 28.964844 20.859375 32.546875 C 20.859375 36.128906 23.367188 39.03125 26.460938 39.03125 C 29.554688 39.03125 32.0625 36.128906 32.0625 32.546875 Z M 32.0625 32.546875 "/>
<path style=" stroke:none;fill-rule:nonzero;fill:rgb(69.803922%,79.215686%,16.862745%);fill-opacity:1;" d="M 61.3125 31.410156 C 61.3125 27.828125 58.804688 24.921875 55.710938 24.921875 C 52.613281 24.921875 50.105469 27.828125 50.105469 31.410156 C 50.105469 34.992188 52.613281 37.894531 55.710938 37.894531 C 58.804688 37.894531 61.3125 34.992188 61.3125 31.410156 Z M 61.3125 31.410156 "/>
<path style=" stroke:none;fill-rule:nonzero;fill:rgb(69.803922%,79.215686%,16.862745%);fill-opacity:1;" d="M 21.894531 31.960938 C 21.894531 28.378906 19.386719 25.472656 16.289062 25.472656 C 13.195312 25.472656 10.6875 28.378906 10.6875 31.960938 C 10.6875 35.542969 13.195312 38.445312 16.289062 38.445312 C 19.386719 38.445312 21.894531 35.542969 21.894531 31.960938 Z M 21.894531 31.960938 "/>
<path style=" stroke:none;fill-rule:nonzero;fill:rgb(68.627451%,76.078431%,5.882353%);fill-opacity:1;" d="M 27.300781 40.714844 C 27.300781 37.339844 24.9375 34.605469 22.023438 34.605469 C 19.109375 34.605469 16.746094 37.339844 16.746094 40.714844 C 16.746094 44.089844 19.109375 46.824219 22.023438 46.824219 C 24.9375 46.824219 27.300781 44.089844 27.300781 40.714844 Z M 27.300781 40.714844 "/>
<path style=" stroke:none;fill-rule:nonzero;fill:rgb(68.627451%,76.078431%,5.882353%);fill-opacity:1;" d="M 37.648438 41.039062 C 37.648438 37.464844 35.148438 34.570312 32.0625 34.570312 C 28.976562 34.570312 26.476562 37.464844 26.476562 41.039062 C 26.476562 44.609375 28.976562 47.503906 32.0625 47.503906 C 35.148438 47.503906 37.648438 44.609375 37.648438 41.039062 Z M 37.648438 41.039062 "/>
<path style=" stroke:none;fill-rule:nonzero;fill:rgb(69.803922%,79.215686%,16.862745%);fill-opacity:1;" d="M 46.792969 40.714844 C 46.792969 37.339844 44.429688 34.605469 41.515625 34.605469 C 38.601562 34.605469 36.238281 37.339844 36.238281 40.714844 C 36.238281 44.089844 38.601562 46.824219 41.515625 46.824219 C 44.429688 46.824219 46.792969 44.089844 46.792969 40.714844 Z M 46.792969 40.714844 "/>
<path style=" stroke:none;fill-rule:nonzero;fill:rgb(69.803922%,79.215686%,16.862745%);fill-opacity:1;" d="M 55.710938 40.714844 C 55.710938 37.339844 53.347656 34.605469 50.433594 34.605469 C 47.515625 34.605469 45.15625 37.339844 45.15625 40.714844 C 45.15625 44.089844 47.515625 46.824219 50.433594 46.824219 C 53.347656 46.824219 55.710938 44.089844 55.710938 40.714844 Z M 55.710938 40.714844 "/>
<path style=" stroke:none;fill-rule:nonzero;fill:rgb(69.803922%,79.215686%,16.862745%);fill-opacity:1;" d="M 31.808594 48.730469 C 31.808594 45.355469 29.449219 42.621094 26.53125 42.621094 C 23.617188 42.621094 21.253906 45.355469 21.253906 48.730469 C 21.253906 52.105469 23.617188 54.839844 26.53125 54.839844 C 29.449219 54.839844 31.808594 52.105469 31.808594 48.730469 Z M 31.808594 48.730469 "/>
<path style=" stroke:none;fill-rule:nonzero;fill:rgb(68.627451%,76.078431%,5.882353%);fill-opacity:1;" d="M 41.613281 49.558594 C 41.613281 46.183594 39.25 43.449219 36.335938 43.449219 C 33.417969 43.449219 31.058594 46.183594 31.058594 49.558594 C 31.058594 52.933594 33.417969 55.667969 36.335938 55.667969 C 39.25 55.667969 41.613281 52.933594 41.613281 49.558594 Z M 41.613281 49.558594 "/>
<path style=" stroke:none;fill-rule:nonzero;fill:rgb(72.54902%,79.607843%,0%);fill-opacity:1;" d="M 51.222656 48.730469 C 51.222656 45.355469 48.859375 42.621094 45.945312 42.621094 C 43.03125 42.621094 40.667969 45.355469 40.667969 48.730469 C 40.667969 52.105469 43.03125 54.839844 45.945312 54.839844 C 48.859375 54.839844 51.222656 52.105469 51.222656 48.730469 Z M 51.222656 48.730469 "/>
<path style=" stroke:none;fill-rule:nonzero;fill:rgb(69.803922%,79.215686%,16.862745%);fill-opacity:1;" d="M 37.089844 57.117188 C 37.089844 53.742188 34.726562 51.007812 31.8125 51.007812 C 28.894531 51.007812 26.535156 53.742188 26.535156 57.117188 C 26.535156 60.492188 28.894531 63.226562 31.8125 63.226562 C 34.726562 63.226562 37.089844 60.492188 37.089844 57.117188 Z M 37.089844 57.117188 "/>
<path style=" stroke:none;fill-rule:nonzero;fill:rgb(69.803922%,79.215686%,16.862745%);fill-opacity:1;" d="M 46.792969 57.117188 C 46.792969 53.742188 44.429688 51.007812 41.515625 51.007812 C 38.601562 51.007812 36.238281 53.742188 36.238281 57.117188 C 36.238281 60.492188 38.601562 63.226562 41.515625 63.226562 C 44.429688 63.226562 46.792969 60.492188 46.792969 57.117188 Z M 46.792969 57.117188 "/>
<path style=" stroke:none;fill-rule:nonzero;fill:rgb(72.54902%,79.607843%,0%);fill-opacity:1;" d="M 41.886719 64.765625 C 41.886719 61.390625 39.523438 58.65625 36.609375 58.65625 C 33.695312 58.65625 31.332031 61.390625 31.332031 64.765625 C 31.332031 68.140625 33.695312 70.875 36.609375 70.875 C 39.523438 70.875 41.886719 68.140625 41.886719 64.765625 Z M 41.886719 64.765625 "/>
<path style=" stroke:none;fill-rule:nonzero;fill:rgb(89.803922%,95.294118%,57.254902%);fill-opacity:1;" d="M 20.859375 22.226562 C 20.859375 21.300781 20.308594 20.546875 19.628906 20.546875 C 18.953125 20.546875 18.402344 21.300781 18.402344 22.226562 C 18.402344 23.15625 18.953125 23.90625 19.628906 23.90625 C 20.308594 23.90625 20.859375 23.15625 20.859375 22.226562 Z M 20.859375 22.226562 "/>
<path style=" stroke:none;fill-rule:nonzero;fill:rgb(89.803922%,95.294118%,57.254902%);fill-opacity:1;" d="M 31.332031 22.226562 C 31.332031 21.300781 30.78125 20.546875 30.105469 20.546875 C 29.425781 20.546875 28.878906 21.300781 28.878906 22.226562 C 28.878906 23.15625 29.425781 23.90625 30.105469 23.90625 C 30.78125 23.90625 31.332031 23.15625 31.332031 22.226562 Z M 31.332031 22.226562 "/>
<path style=" stroke:none;fill-rule:nonzero;fill:rgb(89.803922%,95.294118%,57.254902%);fill-opacity:1;" d="M 16.082031 31.410156 C 16.082031 30.480469 15.535156 29.730469 14.855469 29.730469 C 14.179688 29.730469 13.628906 30.480469 13.628906 31.410156 C 13.628906 32.335938 14.179688 33.089844 14.855469 33.089844 C 15.535156 33.089844 16.082031 32.335938 16.082031 31.410156 Z M 16.082031 31.410156 "/>
<path style=" stroke:none;fill-rule:nonzero;fill:rgb(89.803922%,95.294118%,57.254902%);fill-opacity:1;" d="M 27.183594 31.960938 C 27.183594 31.03125 26.636719 30.28125 25.957031 30.28125 C 25.277344 30.28125 24.730469 31.03125 24.730469 31.960938 C 24.730469 32.886719 25.277344 33.640625 25.957031 33.640625 C 26.636719 33.640625 27.183594 32.886719 27.183594 31.960938 Z M 27.183594 31.960938 "/>
<path style=" stroke:none;fill-rule:nonzero;fill:rgb(89.803922%,95.294118%,57.254902%);fill-opacity:1;" d="M 40.679688 22.226562 C 40.679688 21.300781 40.132812 20.546875 39.453125 20.546875 C 38.773438 20.546875 38.226562 21.300781 38.226562 22.226562 C 38.226562 23.15625 38.773438 23.90625 39.453125 23.90625 C 40.132812 23.90625 40.679688 23.15625 40.679688 22.226562 Z M 40.679688 22.226562 "/>
<path style=" stroke:none;fill-rule:nonzero;fill:rgb(89.803922%,95.294118%,57.254902%);fill-opacity:1;" d="M 37.5625 30.332031 C 37.5625 29.40625 37.011719 28.652344 36.335938 28.652344 C 35.65625 28.652344 35.105469 29.40625 35.105469 30.332031 C 35.105469 31.261719 35.65625 32.011719 36.335938 32.011719 C 37.011719 32.011719 37.5625 31.261719 37.5625 30.332031 Z M 37.5625 30.332031 "/>
<path style=" stroke:none;fill-rule:nonzero;fill:rgb(89.803922%,95.294118%,57.254902%);fill-opacity:1;" d="M 22.484375 42.394531 C 22.484375 41.464844 21.933594 40.714844 21.253906 40.714844 C 20.578125 40.714844 20.027344 41.464844 20.027344 42.394531 C 20.027344 43.324219 20.578125 44.074219 21.253906 44.074219 C 21.933594 44.074219 22.484375 43.324219 22.484375 42.394531 Z M 22.484375 42.394531 "/>
<path style=" stroke:none;fill-rule:nonzero;fill:rgb(89.803922%,95.294118%,57.254902%);fill-opacity:1;" d="M 33.039062 41.039062 C 33.039062 40.109375 32.488281 39.355469 31.8125 39.355469 C 31.132812 39.355469 30.582031 40.109375 30.582031 41.039062 C 30.582031 41.964844 31.132812 42.71875 31.8125 42.71875 C 32.488281 42.71875 33.039062 41.964844 33.039062 41.039062 Z M 33.039062 41.039062 "/>
<path style=" stroke:none;fill-rule:nonzero;fill:rgb(89.803922%,95.294118%,57.254902%);fill-opacity:1;" d="M 43.441406 39.03125 C 43.441406 38.105469 42.890625 37.351562 42.210938 37.351562 C 41.535156 37.351562 40.984375 38.105469 40.984375 39.03125 C 40.984375 39.960938 41.535156 40.714844 42.210938 40.714844 C 42.890625 40.714844 43.441406 39.960938 43.441406 39.03125 Z M 43.441406 39.03125 "/>
<path style=" stroke:none;fill-rule:nonzero;fill:rgb(89.803922%,95.294118%,57.254902%);fill-opacity:1;" d="M 55.710938 30.277344 C 55.710938 29.351562 55.160156 28.597656 54.480469 28.597656 C 53.804688 28.597656 53.253906 29.351562 53.253906 30.277344 C 53.253906 31.207031 53.804688 31.960938 54.480469 31.960938 C 55.160156 31.960938 55.710938 31.207031 55.710938 30.277344 Z M 55.710938 30.277344 "/>
<path style=" stroke:none;fill-rule:nonzero;fill:rgb(89.803922%,95.294118%,57.254902%);fill-opacity:1;" d="M 52.449219 20.546875 C 52.449219 19.617188 51.902344 18.867188 51.222656 18.867188 C 50.546875 18.867188 49.996094 19.617188 49.996094 20.546875 C 49.996094 21.476562 50.546875 22.226562 51.222656 22.226562 C 51.902344 22.226562 52.449219 21.476562 52.449219 20.546875 Z M 52.449219 20.546875 "/>
<path style=" stroke:none;fill-rule:nonzero;fill:rgb(89.803922%,95.294118%,57.254902%);fill-opacity:1;" d="M 46.109375 29.730469 C 46.109375 28.800781 45.558594 28.046875 44.882812 28.046875 C 44.203125 28.046875 43.652344 28.800781 43.652344 29.730469 C 43.652344 30.65625 44.203125 31.410156 44.882812 31.410156 C 45.558594 31.410156 46.109375 30.65625 46.109375 29.730469 Z M 46.109375 29.730469 "/>
<path style=" stroke:none;fill-rule:nonzero;fill:rgb(89.803922%,95.294118%,57.254902%);fill-opacity:1;" d="M 27.183594 47.789062 C 27.183594 46.863281 26.636719 46.109375 25.957031 46.109375 C 25.277344 46.109375 24.730469 46.863281 24.730469 47.789062 C 24.730469 48.71875 25.277344 49.472656 25.957031 49.472656 C 26.636719 49.472656 27.183594 48.71875 27.183594 47.789062 Z M 27.183594 47.789062 "/>
<path style=" stroke:none;fill-rule:nonzero;fill:rgb(89.803922%,95.294118%,57.254902%);fill-opacity:1;" d="M 37.464844 48.730469 C 37.464844 47.800781 36.917969 47.050781 36.238281 47.050781 C 35.5625 47.050781 35.011719 47.800781 35.011719 48.730469 C 35.011719 49.660156 35.5625 50.410156 36.238281 50.410156 C 36.917969 50.410156 37.464844 49.660156 37.464844 48.730469 Z M 37.464844 48.730469 "/>
<path style=" stroke:none;fill-rule:nonzero;fill:rgb(89.803922%,95.294118%,57.254902%);fill-opacity:1;" d="M 46.109375 47.789062 C 46.109375 46.863281 45.558594 46.109375 44.882812 46.109375 C 44.203125 46.109375 43.652344 46.863281 43.652344 47.789062 C 43.652344 48.71875 44.203125 49.472656 44.882812 49.472656 C 45.558594 49.472656 46.109375 48.71875 46.109375 47.789062 Z M 46.109375 47.789062 "/>
<path style=" stroke:none;fill-rule:nonzero;fill:rgb(89.803922%,95.294118%,57.254902%);fill-opacity:1;" d="M 52.449219 39.355469 C 52.449219 38.429688 51.902344 37.675781 51.222656 37.675781 C 50.546875 37.675781 49.996094 38.429688 49.996094 39.355469 C 49.996094 40.285156 50.546875 41.035156 51.222656 41.035156 C 51.902344 41.035156 52.449219 40.285156 52.449219 39.355469 Z M 52.449219 39.355469 "/>
<path style=" stroke:none;fill-rule:nonzero;fill:rgb(89.803922%,95.294118%,57.254902%);fill-opacity:1;" d="M 33.394531 57.515625 C 33.394531 56.585938 32.847656 55.835938 32.167969 55.835938 C 31.492188 55.835938 30.941406 56.585938 30.941406 57.515625 C 30.941406 58.445312 31.492188 59.195312 32.167969 59.195312 C 32.847656 59.195312 33.394531 58.445312 33.394531 57.515625 Z M 33.394531 57.515625 "/>
<path style=" stroke:none;fill-rule:nonzero;fill:rgb(89.803922%,95.294118%,57.254902%);fill-opacity:1;" d="M 42.746094 58.410156 C 42.746094 57.484375 42.195312 56.730469 41.515625 56.730469 C 40.839844 56.730469 40.289062 57.484375 40.289062 58.410156 C 40.289062 59.339844 40.839844 60.089844 41.515625 60.089844 C 42.195312 60.089844 42.746094 59.339844 42.746094 58.410156 Z M 42.746094 58.410156 "/>
<path style=" stroke:none;fill-rule:nonzero;fill:rgb(89.803922%,95.294118%,57.254902%);fill-opacity:1;" d="M 37.089844 67.554688 C 37.089844 66.628906 36.539062 65.875 35.859375 65.875 C 35.183594 65.875 34.632812 66.628906 34.632812 67.554688 C 34.632812 68.484375 35.183594 69.238281 35.859375 69.238281 C 36.539062 69.238281 37.089844 68.484375 37.089844 67.554688 Z M 37.089844 67.554688 "/>
</g>
</svg>
