<?xml version="1.0" encoding="UTF-8"?>
<svg xmlns="http://www.w3.org/2000/svg" xmlns:xlink="http://www.w3.org/1999/xlink" width="258px" height="258px" viewBox="0 0 258 258" version="1.1">
<g id="surface1">
<path style=" stroke:none;fill-rule:nonzero;fill:rgb(96.078431%,55.686275%,7.45098%);fill-opacity:1;" d="M 217.382812 155.792969 C 217.382812 101.570312 177.277344 57.613281 127.808594 57.613281 C 78.335938 57.613281 38.230469 101.570312 38.230469 155.792969 C 38.230469 210.011719 78.335938 253.96875 127.808594 253.96875 C 177.277344 253.96875 217.382812 210.011719 217.382812 155.792969 Z M 217.382812 155.792969 "/>
<path style=" stroke:none;fill-rule:nonzero;fill:rgb(84.705882%,44.313725%,9.019608%);fill-opacity:1;" d="M 56.6875 96.128906 C 55.078125 98.429688 53.566406 100.8125 52.144531 103.265625 C 52.148438 103.265625 52.152344 103.269531 52.15625 103.273438 C 67.40625 112.476562 145.484375 161.828125 185.117188 229.882812 C 185.289062 230.175781 185.5 230.425781 185.722656 230.660156 C 187.808594 228.71875 189.820312 226.675781 191.738281 224.535156 C 151.039062 155.523438 72.585938 105.742188 56.6875 96.128906 Z M 56.6875 96.128906 "/>
<path style=" stroke:none;fill-rule:nonzero;fill:rgb(84.705882%,44.313725%,9.019608%);fill-opacity:1;" d="M 42.914062 129.007812 C 42.542969 128.785156 42.152344 128.644531 41.75 128.542969 C 41.015625 131.339844 40.386719 134.175781 39.878906 137.066406 C 59.734375 149.230469 120.652344 189.609375 158.554688 248.03125 C 161.175781 246.980469 163.734375 245.792969 166.234375 244.488281 C 166.140625 244.273438 166.039062 244.058594 165.90625 243.855469 C 126.195312 182.355469 61.726562 140.40625 42.914062 129.007812 Z M 42.914062 129.007812 "/>
<path style=" stroke:none;fill-rule:nonzero;fill:rgb(84.705882%,44.313725%,9.019608%);fill-opacity:1;" d="M 42.832031 174.84375 C 41.902344 174.269531 40.839844 174.117188 39.84375 174.308594 C 40.441406 177.726562 41.1875 181.085938 42.097656 184.371094 C 58.886719 195.070312 93.449219 219.207031 124.078125 253.867188 C 125.316406 253.921875 126.554688 253.96875 127.808594 253.96875 C 129.871094 253.96875 131.914062 253.863281 133.945312 253.710938 C 133.894531 252.804688 133.574219 251.902344 132.9375 251.160156 C 98.523438 211.28125 58.460938 184.507812 42.832031 174.84375 Z M 42.832031 174.84375 "/>
<path style=" stroke:none;fill-rule:nonzero;fill:rgb(84.705882%,44.313725%,9.019608%);fill-opacity:1;" d="M 82.515625 71.097656 C 80.035156 72.695312 77.636719 74.417969 75.316406 76.257812 C 75.628906 76.675781 76.019531 77.046875 76.496094 77.332031 C 91.015625 86.121094 165.460938 133.355469 204.882812 200.59375 C 205.332031 201.355469 205.988281 201.902344 206.730469 202.25 C 208.109375 199.441406 209.367188 196.550781 210.496094 193.585938 C 171.035156 128.304688 100.421875 82.117188 82.515625 71.097656 Z M 82.515625 71.097656 "/>
<path style=" stroke:none;fill-rule:nonzero;fill:rgb(84.705882%,44.313725%,9.019608%);fill-opacity:1;" d="M 217.269531 150.820312 C 192.148438 109.90625 156.839844 78.195312 129.601562 57.664062 C 129.003906 57.652344 128.410156 57.613281 127.808594 57.613281 C 124.667969 57.613281 121.5625 57.796875 118.503906 58.144531 C 118.605469 59.316406 119.175781 60.445312 120.199219 61.199219 C 148.609375 82.046875 187.902344 116.339844 213.738281 161.316406 C 214.464844 162.578125 215.746094 163.292969 217.089844 163.394531 C 217.265625 160.882812 217.382812 158.355469 217.382812 155.792969 C 217.382812 154.125 217.34375 152.46875 217.269531 150.820312 Z M 217.269531 150.820312 "/>
<path style=" stroke:none;fill-rule:nonzero;fill:rgb(84.705882%,44.313725%,9.019608%);fill-opacity:1;" d="M 72.894531 229.882812 C 112.5 161.875 189.085938 113.402344 204.097656 104.34375 C 202.707031 101.871094 201.230469 99.46875 199.652344 97.148438 C 178.03125 110.207031 105.1875 157.675781 65.628906 225.601562 C 65.523438 225.785156 65.449219 225.972656 65.375 226.160156 C 67.152344 228.054688 68.984375 229.882812 70.898438 231.609375 C 71.703125 231.265625 72.417969 230.699219 72.894531 229.882812 Z M 72.894531 229.882812 "/>
<path style=" stroke:none;fill-rule:nonzero;fill:rgb(84.705882%,44.313725%,9.019608%);fill-opacity:1;" d="M 207.996094 146.59375 L 208.976562 146 C 210.96875 144.792969 211.613281 142.191406 210.414062 140.183594 C 209.214844 138.179688 206.625 137.53125 204.636719 138.738281 L 203.65625 139.332031 C 183.886719 151.292969 131.363281 183.058594 92.101562 243.855469 C 91.761719 244.378906 91.5625 244.949219 91.476562 245.53125 C 93.910156 246.714844 96.402344 247.78125 98.945312 248.730469 C 99.011719 248.640625 99.101562 248.570312 99.164062 248.46875 C 137.367188 189.3125 188.679688 158.277344 207.996094 146.59375 Z M 207.996094 146.59375 "/>
<path style=" stroke:none;fill-rule:nonzero;fill:rgb(84.705882%,44.313725%,9.019608%);fill-opacity:1;" d="M 212.386719 176.59375 C 194.011719 187.949219 158.230469 212.738281 125.074219 251.160156 C 124.398438 251.941406 124.078125 252.90625 124.0625 253.863281 C 125.308594 253.921875 126.550781 253.964844 127.808594 253.964844 C 129.925781 253.964844 132.023438 253.859375 134.109375 253.699219 C 163.59375 220.316406 194.726562 197.855469 212.976562 186.210938 C 213.960938 182.898438 214.796875 179.519531 215.460938 176.066406 C 214.441406 175.847656 213.34375 176 212.386719 176.59375 Z M 212.386719 176.59375 "/>
<path style=" stroke:none;fill-rule:nonzero;fill:rgb(84.705882%,44.313725%,9.019608%);fill-opacity:1;" d="M 42.21875 166.339844 C 67.867188 121.6875 109.746094 81.796875 137.816406 61.199219 C 138.742188 60.515625 139.308594 59.527344 139.484375 58.472656 C 135.882812 57.960938 132.21875 57.664062 128.492188 57.636719 C 100.101562 79.296875 63.3125 115.289062 38.25 156.558594 C 38.277344 160.570312 38.535156 164.515625 38.992188 168.398438 C 40.289062 168.265625 41.515625 167.5625 42.21875 166.339844 Z M 42.21875 166.339844 "/>
<path style=" stroke:none;fill-rule:nonzero;fill:rgb(84.705882%,44.313725%,9.019608%);fill-opacity:1;" d="M 50.371094 202.152344 C 88.078125 137.839844 158.605469 91.132812 178.324219 79.265625 L 180.207031 78.128906 C 180.671875 77.851562 181.050781 77.492188 181.363281 77.085938 C 181.335938 77.066406 181.304688 77.046875 181.277344 77.023438 C 179.09375 75.238281 176.828125 73.558594 174.496094 71.996094 C 174.417969 71.945312 174.34375 71.886719 174.265625 71.835938 L 174 72 C 154.203125 83.914062 84.597656 129.933594 45.34375 194.183594 C 46.550781 197.296875 47.910156 200.320312 49.394531 203.257812 C 49.769531 202.949219 50.113281 202.597656 50.371094 202.152344 Z M 50.371094 202.152344 "/>
<path style=" stroke:none;fill-rule:nonzero;fill:rgb(12.941176%,40%,1.568627%);fill-opacity:1;" d="M 128.914062 66.667969 C 128.914062 66.667969 77.363281 36.832031 34.265625 66.667969 C 34.265625 66.667969 39.796875 53.5625 50.984375 41.710938 C 76.335938 14.847656 122.367188 27.785156 128.546875 64.171875 C 128.6875 64.988281 128.808594 65.820312 128.914062 66.667969 Z M 128.914062 66.667969 "/>
<path style=" stroke:none;fill-rule:nonzero;fill:rgb(15.686275%,42.745098%,3.137255%);fill-opacity:1;" d="M 128.914062 66.667969 C 128.914062 66.667969 99.382812 14.9375 47.121094 19.265625 C 47.121094 19.265625 58.472656 10.679688 74.097656 6 C 109.507812 -4.613281 142.890625 29.570312 130.019531 64.164062 C 129.730469 64.941406 129.246094 65.878906 128.914062 66.667969 Z M 128.914062 66.667969 "/>
<path style=" stroke:none;fill-rule:nonzero;fill:rgb(12.941176%,40%,1.568627%);fill-opacity:1;" d="M 128.914062 66.667969 C 128.914062 66.667969 180.640625 36.6875 223.734375 66.523438 C 223.734375 66.523438 218.203125 53.421875 207.015625 41.566406 C 181.664062 14.703125 135.636719 27.640625 129.453125 64.027344 C 129.3125 64.84375 129.015625 65.820312 128.914062 66.667969 Z M 128.914062 66.667969 "/>
<path style=" stroke:none;fill-rule:nonzero;fill:rgb(15.686275%,42.745098%,3.137255%);fill-opacity:1;" d="M 128.902344 66.667969 C 128.902344 66.667969 158.738281 15.03125 211.003906 19.359375 C 211.003906 19.359375 199.652344 10.773438 184.023438 6.089844 C 148.617188 -4.519531 115.234375 29.660156 128.101562 64.257812 C 128.394531 65.035156 128.570312 65.878906 128.902344 66.667969 Z M 128.902344 66.667969 "/>
</g>
</svg>
