<?xml version="1.0" encoding="UTF-8"?>
<svg xmlns="http://www.w3.org/2000/svg" xmlns:xlink="http://www.w3.org/1999/xlink" width="300px" height="300px" viewBox="0 0 300 300" version="1.1">
<defs>
<filter id="alpha" filterUnits="objectBoundingBox" x="0%" y="0%" width="100%" height="100%">
  <feColorMatrix type="matrix" in="SourceGraphic" values="0 0 0 0 1 0 0 0 0 1 0 0 0 0 1 0 0 0 1 0"/>
</filter>
<mask id="mask0">
  <g filter="url(#alpha)">
<rect x="0" y="0" width="300" height="300" style="fill:rgb(0%,0%,0%);fill-opacity:0.2;stroke:none;"/>
  </g>
</mask>
<clipPath id="clip1">
  <rect x="0" y="0" width="300" height="300"/>
</clipPath>
<g id="surface5" clip-path="url(#clip1)">
<path style=" stroke:none;fill-rule:nonzero;fill:rgb(100%,100%,100%);fill-opacity:1;" d="M 146.25 229.101562 C 144.578125 229.042969 142.550781 232.5 142.242188 235.710938 C 141.949219 238.890625 143.144531 241.648438 145.710938 241.765625 C 148.273438 241.835938 149.699219 239.261719 149.679688 236.054688 C 149.644531 232.84375 147.921875 229.144531 146.25 229.101562 Z M 146.25 229.101562 "/>
</g>
<mask id="mask1">
  <g filter="url(#alpha)">
<rect x="0" y="0" width="300" height="300" style="fill:rgb(0%,0%,0%);fill-opacity:0.2;stroke:none;"/>
  </g>
</mask>
<clipPath id="clip2">
  <rect x="0" y="0" width="300" height="300"/>
</clipPath>
<g id="surface9" clip-path="url(#clip2)">
<path style=" stroke:none;fill-rule:nonzero;fill:rgb(100%,100%,100%);fill-opacity:1;" d="M 120.667969 223.683594 C 119.882812 223.363281 118.734375 223.917969 117.609375 224.855469 C 116.492188 225.789062 115.375 227.167969 114.722656 228.632812 C 113.402344 231.550781 113.625 234.5625 116.027344 235.480469 C 118.40625 236.453125 120.628906 234.382812 121.648438 231.355469 C 122.660156 228.308594 122.210938 224.332031 120.667969 223.683594 Z M 120.667969 223.683594 "/>
</g>
<mask id="mask2">
  <g filter="url(#alpha)">
<rect x="0" y="0" width="300" height="300" style="fill:rgb(0%,0%,0%);fill-opacity:0.2;stroke:none;"/>
  </g>
</mask>
<clipPath id="clip3">
  <rect x="0" y="0" width="300" height="300"/>
</clipPath>
<g id="surface13" clip-path="url(#clip3)">
<path style=" stroke:none;fill-rule:nonzero;fill:rgb(100%,100%,100%);fill-opacity:1;" d="M 98.238281 210.226562 C 97.59375 209.667969 96.347656 209.796875 94.964844 210.335938 C 93.589844 210.875 92.101562 211.800781 91.003906 212.980469 C 89.914062 214.15625 89.167969 215.460938 88.945312 216.691406 C 88.738281 217.902344 89.058594 219.042969 90.019531 219.878906 C 91.953125 221.5625 94.734375 220.320312 96.675781 217.800781 C 97.664062 216.53125 98.355469 214.894531 98.660156 213.460938 C 98.953125 212.035156 98.871094 210.796875 98.238281 210.226562 Z M 98.238281 210.226562 "/>
</g>
<mask id="mask3">
  <g filter="url(#alpha)">
<rect x="0" y="0" width="300" height="300" style="fill:rgb(0%,0%,0%);fill-opacity:0.2;stroke:none;"/>
  </g>
</mask>
<clipPath id="clip4">
  <rect x="0" y="0" width="300" height="300"/>
</clipPath>
<g id="surface17" clip-path="url(#clip4)">
<path style=" stroke:none;fill-rule:nonzero;fill:rgb(100%,100%,100%);fill-opacity:1;" d="M 81.339844 190.234375 C 80.511719 188.785156 76.417969 189.035156 73.601562 190.511719 C 70.746094 192.027344 69.167969 194.5 70.449219 196.722656 C 71.765625 198.925781 74.761719 198.667969 77.421875 196.902344 C 80.101562 195.105469 82.179688 191.679688 81.339844 190.234375 Z M 81.339844 190.234375 "/>
</g>
<mask id="mask4">
  <g filter="url(#alpha)">
<rect x="0" y="0" width="300" height="300" style="fill:rgb(0%,0%,0%);fill-opacity:0.2;stroke:none;"/>
  </g>
</mask>
<clipPath id="clip5">
  <rect x="0" y="0" width="300" height="300"/>
</clipPath>
<g id="surface21" clip-path="url(#clip5)">
<path style=" stroke:none;fill-rule:nonzero;fill:rgb(100%,100%,100%);fill-opacity:1;" d="M 71.84375 165.871094 C 71.535156 164.230469 67.636719 163.121094 64.460938 163.601562 C 61.292969 164.097656 58.957031 165.921875 59.433594 168.445312 C 60.007812 170.949219 62.855469 171.703125 65.964844 170.894531 C 69.066406 170.070312 72.222656 167.496094 71.84375 165.871094 Z M 71.84375 165.871094 "/>
</g>
<mask id="mask5">
  <g filter="url(#alpha)">
<rect x="0" y="0" width="300" height="300" style="fill:rgb(0%,0%,0%);fill-opacity:0.2;stroke:none;"/>
  </g>
</mask>
<clipPath id="clip6">
  <rect x="0" y="0" width="300" height="300"/>
</clipPath>
<g id="surface25" clip-path="url(#clip6)">
<path style=" stroke:none;fill-rule:nonzero;fill:rgb(100%,100%,100%);fill-opacity:1;" d="M 70.835938 139.722656 C 70.949219 138.878906 70.132812 137.90625 68.941406 137.046875 C 67.761719 136.195312 66.148438 135.453125 64.566406 135.183594 C 61.410156 134.625 58.554688 135.589844 58.257812 138.140625 C 57.902344 140.683594 60.457031 142.328125 63.640625 142.570312 C 66.84375 142.796875 70.585938 141.375 70.835938 139.722656 Z M 70.835938 139.722656 "/>
</g>
<mask id="mask6">
  <g filter="url(#alpha)">
<rect x="0" y="0" width="300" height="300" style="fill:rgb(0%,0%,0%);fill-opacity:0.2;stroke:none;"/>
  </g>
</mask>
<clipPath id="clip7">
  <rect x="0" y="0" width="300" height="300"/>
</clipPath>
<g id="surface29" clip-path="url(#clip7)">
<path style=" stroke:none;fill-rule:nonzero;fill:rgb(100%,100%,100%);fill-opacity:1;" d="M 78.339844 114.679688 C 79.109375 113.199219 76.671875 109.898438 73.894531 108.339844 C 71.070312 106.769531 68.144531 106.792969 66.96875 109.074219 C 65.84375 111.382812 67.683594 113.753906 70.617188 115.023438 C 73.582031 116.292969 77.589844 116.171875 78.339844 114.679688 Z M 78.339844 114.679688 "/>
</g>
<mask id="mask7">
  <g filter="url(#alpha)">
<rect x="0" y="0" width="300" height="300" style="fill:rgb(0%,0%,0%);fill-opacity:0.2;stroke:none;"/>
  </g>
</mask>
<clipPath id="clip8">
  <rect x="0" y="0" width="300" height="300"/>
</clipPath>
<g id="surface33" clip-path="url(#clip8)">
<path style=" stroke:none;fill-rule:nonzero;fill:rgb(100%,100%,100%);fill-opacity:1;" d="M 93.601562 93.417969 C 94.8125 92.265625 93.59375 88.378906 91.453125 85.988281 C 89.300781 83.605469 86.507812 82.667969 84.652344 84.4375 C 82.871094 86.28125 83.8125 89.089844 86.183594 91.246094 C 88.570312 93.398438 92.4375 94.621094 93.601562 93.417969 Z M 93.601562 93.417969 "/>
</g>
<mask id="mask8">
  <g filter="url(#alpha)">
<rect x="0" y="0" width="300" height="300" style="fill:rgb(0%,0%,0%);fill-opacity:0.2;stroke:none;"/>
  </g>
</mask>
<clipPath id="clip9">
  <rect x="0" y="0" width="300" height="300"/>
</clipPath>
<g id="surface37" clip-path="url(#clip9)">
<path style=" stroke:none;fill-rule:nonzero;fill:rgb(100%,100%,100%);fill-opacity:1;" d="M 114.914062 78.226562 C 116.421875 77.507812 116.542969 73.472656 115.285156 70.507812 C 114.027344 67.566406 111.671875 65.738281 109.351562 66.839844 C 107.066406 68.007812 107.039062 70.949219 108.589844 73.761719 C 110.152344 76.566406 113.429688 78.992188 114.914062 78.226562 Z M 114.914062 78.226562 "/>
</g>
<mask id="mask9">
  <g filter="url(#alpha)">
<rect x="0" y="0" width="300" height="300" style="fill:rgb(0%,0%,0%);fill-opacity:0.2;stroke:none;"/>
  </g>
</mask>
<clipPath id="clip10">
  <rect x="0" y="0" width="300" height="300"/>
</clipPath>
<g id="surface41" clip-path="url(#clip10)">
<path style=" stroke:none;fill-rule:nonzero;fill:rgb(100%,100%,100%);fill-opacity:1;" d="M 139.988281 70.820312 C 141.640625 70.566406 143.078125 66.855469 142.859375 63.636719 C 142.632812 60.464844 140.996094 57.875 138.453125 58.238281 C 137.1875 58.398438 136.289062 59.164062 135.796875 60.300781 C 135.300781 61.457031 135.207031 62.949219 135.472656 64.53125 C 135.734375 66.117188 136.46875 67.722656 137.316406 68.914062 C 138.175781 70.128906 139.144531 70.925781 139.988281 70.820312 Z M 139.988281 70.820312 "/>
</g>
<mask id="mask10">
  <g filter="url(#alpha)">
<rect x="0" y="0" width="300" height="300" style="fill:rgb(0%,0%,0%);fill-opacity:0.2;stroke:none;"/>
  </g>
</mask>
<clipPath id="clip11">
  <rect x="0" y="0" width="300" height="300"/>
</clipPath>
<g id="surface45" clip-path="url(#clip11)">
<path style=" stroke:none;fill-rule:nonzero;fill:rgb(100%,100%,100%);fill-opacity:1;" d="M 166.128906 71.925781 C 167.753906 72.304688 170.34375 69.152344 171.175781 66.054688 C 171.996094 62.949219 171.253906 60.101562 168.75 59.523438 C 166.234375 59.019531 164.394531 61.371094 163.890625 64.53125 C 163.394531 67.714844 164.496094 71.589844 166.128906 71.925781 Z M 166.128906 71.925781 "/>
</g>
<mask id="mask11">
  <g filter="url(#alpha)">
<rect x="0" y="0" width="300" height="300" style="fill:rgb(0%,0%,0%);fill-opacity:0.2;stroke:none;"/>
  </g>
</mask>
<clipPath id="clip12">
  <rect x="0" y="0" width="300" height="300"/>
</clipPath>
<g id="surface49" clip-path="url(#clip12)">
<path style=" stroke:none;fill-rule:nonzero;fill:rgb(100%,100%,100%);fill-opacity:1;" d="M 190.464844 81.5 C 191.890625 82.367188 195.339844 80.277344 197.140625 77.609375 C 198.921875 74.949219 199.175781 71.976562 196.988281 70.632812 C 194.765625 69.351562 192.285156 70.925781 190.769531 73.761719 C 189.269531 76.59375 189.015625 80.667969 190.464844 81.5 Z M 190.464844 81.5 "/>
</g>
<mask id="mask12">
  <g filter="url(#alpha)">
<rect x="0" y="0" width="300" height="300" style="fill:rgb(0%,0%,0%);fill-opacity:0.2;stroke:none;"/>
  </g>
</mask>
<clipPath id="clip13">
  <rect x="0" y="0" width="300" height="300"/>
</clipPath>
<g id="surface53" clip-path="url(#clip13)">
<path style=" stroke:none;fill-rule:nonzero;fill:rgb(100%,100%,100%);fill-opacity:1;" d="M 210.394531 98.472656 C 211.496094 99.726562 215.398438 98.890625 217.972656 96.9375 C 220.507812 95.003906 221.738281 92.242188 220.074219 90.289062 C 218.402344 88.34375 215.539062 89.042969 213.175781 91.246094 C 210.859375 93.429688 209.300781 97.207031 210.394531 98.472656 Z M 210.394531 98.472656 "/>
</g>
<mask id="mask13">
  <g filter="url(#alpha)">
<rect x="0" y="0" width="300" height="300" style="fill:rgb(0%,0%,0%);fill-opacity:0.2;stroke:none;"/>
  </g>
</mask>
<clipPath id="clip14">
  <rect x="0" y="0" width="300" height="300"/>
</clipPath>
<g id="surface57" clip-path="url(#clip14)">
<path style=" stroke:none;fill-rule:nonzero;fill:rgb(100%,100%,100%);fill-opacity:1;" d="M 223.769531 120.953125 C 224.421875 122.492188 228.375 122.96875 231.4375 121.960938 C 234.457031 120.957031 236.558594 118.730469 235.582031 116.355469 C 234.664062 113.953125 231.679688 113.707031 228.742188 115.023438 C 227.273438 115.671875 225.894531 116.78125 224.957031 117.894531 C 223.992188 119.027344 223.457031 120.164062 223.769531 120.953125 Z M 223.769531 120.953125 "/>
</g>
<mask id="mask14">
  <g filter="url(#alpha)">
<rect x="0" y="0" width="300" height="300" style="fill:rgb(0%,0%,0%);fill-opacity:0.2;stroke:none;"/>
  </g>
</mask>
<clipPath id="clip15">
  <rect x="0" y="0" width="300" height="300"/>
</clipPath>
<g id="surface61" clip-path="url(#clip15)">
<path style=" stroke:none;fill-rule:nonzero;fill:rgb(100%,100%,100%);fill-opacity:1;" d="M 229.089844 146.554688 C 229.125 148.226562 232.847656 149.960938 236.027344 150.007812 C 239.261719 150.039062 241.820312 148.621094 241.757812 146.058594 C 241.671875 143.496094 238.890625 142.289062 235.714844 142.570312 C 232.496094 142.867188 229.0625 144.882812 229.089844 146.554688 Z M 229.089844 146.554688 "/>
</g>
<mask id="mask15">
  <g filter="url(#alpha)">
<rect x="0" y="0" width="300" height="300" style="fill:rgb(0%,0%,0%);fill-opacity:0.2;stroke:none;"/>
  </g>
</mask>
<clipPath id="clip16">
  <rect x="0" y="0" width="300" height="300"/>
</clipPath>
<g id="surface65" clip-path="url(#clip16)">
<path style=" stroke:none;fill-rule:nonzero;fill:rgb(100%,100%,100%);fill-opacity:1;" d="M 225.820312 172.507812 C 225.363281 174.113281 228.199219 176.925781 231.238281 178.019531 C 234.246094 179.089844 237.226562 178.613281 237.960938 176.152344 C 238.664062 173.679688 236.53125 171.667969 233.394531 170.894531 C 230.304688 170.148438 226.269531 170.902344 225.820312 172.507812 Z M 225.820312 172.507812 "/>
</g>
<mask id="mask16">
  <g filter="url(#alpha)">
<rect x="0" y="0" width="300" height="300" style="fill:rgb(0%,0%,0%);fill-opacity:0.2;stroke:none;"/>
  </g>
</mask>
<clipPath id="clip17">
  <rect x="0" y="0" width="300" height="300"/>
</clipPath>
<g id="surface69" clip-path="url(#clip17)">
<path style=" stroke:none;fill-rule:nonzero;fill:rgb(100%,100%,100%);fill-opacity:1;" d="M 214.253906 195.964844 C 213.316406 197.347656 215.074219 200.921875 217.589844 202.941406 C 220.078125 204.925781 223.085938 205.472656 224.546875 203.359375 C 226.058594 201.285156 224.636719 198.648438 221.9375 196.902344 C 220.59375 196.023438 218.910156 195.46875 217.464844 195.289062 C 215.996094 195.101562 214.746094 195.269531 214.253906 195.964844 Z M 214.253906 195.964844 "/>
</g>
<mask id="mask17">
  <g filter="url(#alpha)">
<rect x="0" y="0" width="300" height="300" style="fill:rgb(0%,0%,0%);fill-opacity:0.2;stroke:none;"/>
  </g>
</mask>
<clipPath id="clip18">
  <rect x="0" y="0" width="300" height="300"/>
</clipPath>
<g id="surface73" clip-path="url(#clip18)">
<path style=" stroke:none;fill-rule:nonzero;fill:rgb(100%,100%,100%);fill-opacity:1;" d="M 195.714844 214.4375 C 194.371094 215.4375 194.902344 219.417969 196.621094 222.121094 C 198.351562 224.816406 201 226.273438 203.074219 224.757812 C 205.183594 223.296875 204.660156 220.304688 202.679688 217.800781 C 200.679688 215.289062 197.097656 213.5 195.714844 214.4375 Z M 195.714844 214.4375 "/>
</g>
<mask id="mask18">
  <g filter="url(#alpha)">
<rect x="0" y="0" width="300" height="300" style="fill:rgb(0%,0%,0%);fill-opacity:0.2;stroke:none;"/>
  </g>
</mask>
<clipPath id="clip19">
  <rect x="0" y="0" width="300" height="300"/>
</clipPath>
<g id="surface77" clip-path="url(#clip19)">
<path style=" stroke:none;fill-rule:nonzero;fill:rgb(100%,100%,100%);fill-opacity:1;" d="M 172.214844 225.917969 C 170.613281 226.382812 169.835938 230.386719 170.574219 233.484375 C 171.335938 236.621094 173.347656 238.789062 175.816406 238.070312 C 178.285156 237.367188 178.761719 234.359375 177.707031 231.359375 C 177.183594 229.839844 176.191406 228.367188 175.152344 227.328125 C 174.117188 226.300781 173.039062 225.699219 172.214844 225.917969 Z M 172.214844 225.917969 "/>
</g>
<mask id="mask19">
  <g filter="url(#alpha)">
<rect x="0" y="0" width="300" height="300" style="fill:rgb(0%,0%,0%);fill-opacity:0.2;stroke:none;"/>
  </g>
</mask>
<clipPath id="clip20">
  <rect x="0" y="0" width="300" height="300"/>
</clipPath>
<g id="surface81" clip-path="url(#clip20)">
<path style=" stroke:none;fill-rule:nonzero;fill:rgb(100%,100%,100%);fill-opacity:1;" d="M 146.128906 193.960938 C 145.71875 193.9375 145.285156 194.148438 144.851562 194.519531 C 144.421875 194.855469 143.988281 195.347656 143.582031 195.949219 C 142.773438 197.152344 142.058594 198.78125 141.816406 200.367188 C 141.578125 201.953125 141.710938 203.445312 142.273438 204.59375 C 142.554688 205.167969 142.941406 205.65625 143.429688 206.023438 C 143.917969 206.386719 144.511719 206.554688 145.195312 206.601562 C 147.960938 206.746094 149.488281 204.203125 149.453125 200.996094 C 149.449219 199.390625 148.980469 197.652344 148.359375 196.300781 C 147.734375 194.953125 146.953125 193.996094 146.128906 193.960938 Z M 146.128906 193.960938 "/>
</g>
<mask id="mask20">
  <g filter="url(#alpha)">
<rect x="0" y="0" width="300" height="300" style="fill:rgb(0%,0%,0%);fill-opacity:0.2;stroke:none;"/>
  </g>
</mask>
<clipPath id="clip21">
  <rect x="0" y="0" width="300" height="300"/>
</clipPath>
<g id="surface85" clip-path="url(#clip21)">
<path style=" stroke:none;fill-rule:nonzero;fill:rgb(100%,100%,100%);fill-opacity:1;" d="M 122.636719 185.089844 C 121.984375 184.582031 120.722656 184.847656 119.394531 185.40625 C 118.066406 185.972656 116.589844 186.945312 115.527344 188.148438 C 113.394531 190.523438 112.742188 193.589844 114.996094 195.203125 C 116.097656 196.019531 117.324219 196.140625 118.488281 195.664062 C 119.675781 195.160156 120.765625 194.121094 121.632812 192.773438 C 122.5 191.417969 123.023438 189.742188 123.210938 188.304688 C 123.421875 186.820312 123.296875 185.582031 122.636719 185.089844 Z M 122.636719 185.089844 "/>
</g>
<mask id="mask21">
  <g filter="url(#alpha)">
<rect x="0" y="0" width="300" height="300" style="fill:rgb(0%,0%,0%);fill-opacity:0.2;stroke:none;"/>
  </g>
</mask>
<clipPath id="clip22">
  <rect x="0" y="0" width="300" height="300"/>
</clipPath>
<g id="surface89" clip-path="url(#clip22)">
<path style=" stroke:none;fill-rule:nonzero;fill:rgb(100%,100%,100%);fill-opacity:1;" d="M 107.617188 164.925781 C 107.335938 164.15625 106.183594 163.679688 104.703125 163.453125 C 103.277344 163.21875 101.519531 163.234375 99.972656 163.675781 C 98.429688 164.117188 97.121094 164.859375 96.292969 165.855469 C 95.5 166.832031 95.265625 168.042969 95.734375 169.332031 C 96.632812 171.960938 99.746094 172.21875 102.636719 170.855469 C 104.097656 170.183594 105.453125 169.046875 106.375 167.941406 C 107.308594 166.824219 107.914062 165.695312 107.617188 164.925781 Z M 107.617188 164.925781 "/>
</g>
<mask id="mask22">
  <g filter="url(#alpha)">
<rect x="0" y="0" width="300" height="300" style="fill:rgb(0%,0%,0%);fill-opacity:0.2;stroke:none;"/>
  </g>
</mask>
<clipPath id="clip23">
  <rect x="0" y="0" width="300" height="300"/>
</clipPath>
<g id="surface93" clip-path="url(#clip23)">
<path style=" stroke:none;fill-rule:nonzero;fill:rgb(100%,100%,100%);fill-opacity:1;" d="M 105.875 139.859375 C 106.085938 139.0625 105.402344 138.046875 104.300781 137.0625 C 103.195312 136.082031 101.667969 135.132812 100.132812 134.667969 C 97.070312 133.707031 94.179688 134.4375 93.496094 137.128906 C 93.308594 137.789062 93.371094 138.421875 93.585938 138.996094 C 93.796875 139.570312 94.148438 140.078125 94.613281 140.511719 C 95.542969 141.378906 96.929688 141.929688 98.519531 142.15625 C 100.109375 142.382812 101.878906 142.160156 103.269531 141.734375 C 104.695312 141.304688 105.621094 140.644531 105.875 139.859375 Z M 105.875 139.859375 "/>
</g>
<mask id="mask23">
  <g filter="url(#alpha)">
<rect x="0" y="0" width="300" height="300" style="fill:rgb(0%,0%,0%);fill-opacity:0.2;stroke:none;"/>
  </g>
</mask>
<clipPath id="clip24">
  <rect x="0" y="0" width="300" height="300"/>
</clipPath>
<g id="surface97" clip-path="url(#clip24)">
<path style=" stroke:none;fill-rule:nonzero;fill:rgb(100%,100%,100%);fill-opacity:1;" d="M 118 117.828125 C 118.613281 117.277344 118.597656 116.0625 118.207031 114.640625 C 117.808594 113.222656 117.042969 111.601562 116 110.382812 C 113.9375 107.921875 111.105469 106.964844 109.0625 108.839844 C 107.167969 110.855469 108.128906 113.714844 110.570312 115.789062 C 111.785156 116.835938 113.398438 117.617188 114.808594 118.015625 C 116.230469 118.417969 117.425781 118.421875 118 117.828125 Z M 118 117.828125 "/>
</g>
<mask id="mask24">
  <g filter="url(#alpha)">
<rect x="0" y="0" width="300" height="300" style="fill:rgb(0%,0%,0%);fill-opacity:0.2;stroke:none;"/>
  </g>
</mask>
<clipPath id="clip25">
  <rect x="0" y="0" width="300" height="300"/>
</clipPath>
<g id="surface101" clip-path="url(#clip25)">
<path style=" stroke:none;fill-rule:nonzero;fill:rgb(100%,100%,100%);fill-opacity:1;" d="M 140.101562 105.832031 C 140.898438 105.628906 141.554688 104.671875 141.996094 103.253906 C 142.429688 101.859375 142.660156 100.085938 142.445312 98.496094 C 142.050781 95.332031 140.171875 92.914062 137.449219 93.433594 C 134.757812 94.117188 134.011719 97.007812 134.949219 100.078125 C 135.40625 101.617188 136.34375 103.144531 137.316406 104.253906 C 138.296875 105.359375 139.304688 106.039062 140.101562 105.832031 Z M 140.101562 105.832031 "/>
</g>
<mask id="mask25">
  <g filter="url(#alpha)">
<rect x="0" y="0" width="300" height="300" style="fill:rgb(0%,0%,0%);fill-opacity:0.2;stroke:none;"/>
  </g>
</mask>
<clipPath id="clip26">
  <rect x="0" y="0" width="300" height="300"/>
</clipPath>
<g id="surface105" clip-path="url(#clip26)">
<path style=" stroke:none;fill-rule:nonzero;fill:rgb(100%,100%,100%);fill-opacity:1;" d="M 165.160156 107.738281 C 165.925781 108.042969 167.074219 107.40625 168.175781 106.527344 C 169.289062 105.609375 170.4375 104.257812 171.117188 102.804688 C 172.488281 99.945312 172.269531 96.78125 169.636719 95.882812 C 168.351562 95.410156 167.132812 95.660156 166.15625 96.421875 C 165.167969 97.214844 164.410156 98.542969 163.957031 100.078125 C 163.503906 101.632812 163.488281 103.347656 163.699219 104.828125 C 163.917969 106.308594 164.386719 107.457031 165.160156 107.738281 Z M 165.160156 107.738281 "/>
</g>
<mask id="mask26">
  <g filter="url(#alpha)">
<rect x="0" y="0" width="300" height="300" style="fill:rgb(0%,0%,0%);fill-opacity:0.2;stroke:none;"/>
  </g>
</mask>
<clipPath id="clip27">
  <rect x="0" y="0" width="300" height="300"/>
</clipPath>
<g id="surface109" clip-path="url(#clip27)">
<path style=" stroke:none;fill-rule:nonzero;fill:rgb(100%,100%,100%);fill-opacity:1;" d="M 185.226562 122.882812 C 185.710938 123.550781 186.984375 123.660156 188.433594 123.480469 C 189.863281 123.308594 191.554688 122.789062 192.910156 121.929688 C 194.265625 121.070312 195.308594 119.988281 195.816406 118.804688 C 196.347656 117.613281 196.191406 116.414062 195.390625 115.308594 C 194.5625 114.21875 193.433594 113.746094 192.164062 113.894531 C 190.882812 114.042969 189.546875 114.734375 188.335938 115.789062 C 187.125 116.84375 186.148438 118.316406 185.574219 119.632812 C 184.964844 120.996094 184.730469 122.226562 185.226562 122.882812 Z M 185.226562 122.882812 "/>
</g>
<mask id="mask27">
  <g filter="url(#alpha)">
<rect x="0" y="0" width="300" height="300" style="fill:rgb(0%,0%,0%);fill-opacity:0.2;stroke:none;"/>
  </g>
</mask>
<clipPath id="clip28">
  <rect x="0" y="0" width="300" height="300"/>
</clipPath>
<g id="surface113" clip-path="url(#clip28)">
<path style=" stroke:none;fill-rule:nonzero;fill:rgb(100%,100%,100%);fill-opacity:1;" d="M 193.945312 146.433594 C 193.984375 147.257812 194.941406 148.039062 196.292969 148.675781 C 197.65625 149.304688 199.363281 149.785156 200.953125 149.796875 C 204.210938 149.851562 206.730469 148.34375 206.59375 145.574219 C 206.558594 144.890625 206.363281 144.296875 206.039062 143.804688 C 205.695312 143.3125 205.1875 142.925781 204.621094 142.640625 C 203.472656 142.070312 201.980469 141.929688 200.390625 142.160156 C 198.800781 142.390625 197.171875 143.097656 195.96875 143.894531 C 194.800781 144.699219 193.90625 145.609375 193.945312 146.433594 Z M 193.945312 146.433594 "/>
</g>
<mask id="mask28">
  <g filter="url(#alpha)">
<rect x="0" y="0" width="300" height="300" style="fill:rgb(0%,0%,0%);fill-opacity:0.2;stroke:none;"/>
  </g>
</mask>
<clipPath id="clip29">
  <rect x="0" y="0" width="300" height="300"/>
</clipPath>
<g id="surface117" clip-path="url(#clip29)">
<path style=" stroke:none;fill-rule:nonzero;fill:rgb(100%,100%,100%);fill-opacity:1;" d="M 188.566406 170.980469 C 188.132812 171.679688 188.492188 172.84375 189.265625 174.101562 C 190.046875 175.351562 191.238281 176.691406 192.582031 177.574219 C 195.246094 179.355469 198.230469 179.480469 199.664062 177.105469 C 200.9375 174.644531 199.1875 172.15625 196.269531 170.855469 C 194.808594 170.191406 193.042969 169.898438 191.578125 169.910156 C 190.097656 169.921875 188.972656 170.261719 188.566406 170.980469 Z M 188.566406 170.980469 "/>
</g>
<mask id="mask29">
  <g filter="url(#alpha)">
<rect x="0" y="0" width="300" height="300" style="fill:rgb(0%,0%,0%);fill-opacity:0.2;stroke:none;"/>
  </g>
</mask>
<clipPath id="clip30">
  <rect x="0" y="0" width="300" height="300"/>
</clipPath>
<g id="surface121" clip-path="url(#clip30)">
<path style=" stroke:none;fill-rule:nonzero;fill:rgb(100%,100%,100%);fill-opacity:1;" d="M 170.71875 188.738281 C 169.972656 189.089844 169.648438 190.257812 169.621094 191.730469 C 169.605469 193.199219 169.886719 194.96875 170.542969 196.433594 C 171.832031 199.371094 174.285156 201.089844 176.777344 199.871094 C 179.152344 198.441406 179.042969 195.449219 177.273438 192.773438 C 176.402344 191.425781 175.070312 190.226562 173.828125 189.445312 C 172.578125 188.664062 171.417969 188.304688 170.71875 188.738281 Z M 170.71875 188.738281 "/>
</g>
<mask id="mask30">
  <g filter="url(#alpha)">
<rect x="0" y="0" width="300" height="300" style="fill:rgb(0%,0%,0%);fill-opacity:0.2;stroke:none;"/>
  </g>
</mask>
<clipPath id="clip31">
  <rect x="0" y="0" width="300" height="300"/>
</clipPath>
<g id="surface125" clip-path="url(#clip31)">
<path style=" stroke:none;fill-rule:nonzero;fill:rgb(99.215686%,93.72549%,81.960784%);fill-opacity:1;" d="M 162.40625 149.984375 C 162.40625 156.839844 156.847656 162.398438 149.992188 162.398438 C 143.136719 162.398438 137.578125 156.839844 137.578125 149.984375 C 137.578125 143.128906 143.136719 137.570312 149.992188 137.570312 C 156.847656 137.570312 162.40625 143.128906 162.40625 149.984375 Z M 162.40625 149.984375 "/>
</g>
<mask id="mask31">
  <g filter="url(#alpha)">
<rect x="0" y="0" width="300" height="300" style="fill:rgb(0%,0%,0%);fill-opacity:0.121569;stroke:none;"/>
  </g>
</mask>
<clipPath id="clip32">
  <rect x="0" y="0" width="300" height="300"/>
</clipPath>
<g id="surface128" clip-path="url(#clip32)">
<path style=" stroke:none;fill-rule:nonzero;fill:rgb(97.254902%,98.431373%,97.254902%);fill-opacity:1;" d="M 116.078125 50.570312 C 111.257812 45.539062 93.078125 55.136719 75.46875 72.003906 C 57.863281 88.875 47.496094 106.625 52.316406 111.65625 C 57.136719 116.6875 75.316406 107.089844 92.921875 90.222656 C 110.53125 73.355469 120.894531 55.601562 116.078125 50.570312 Z M 116.078125 50.570312 "/>
</g>
<mask id="mask32">
  <g filter="url(#alpha)">
<rect x="0" y="0" width="300" height="300" style="fill:rgb(0%,0%,0%);fill-opacity:0.141176;stroke:none;"/>
  </g>
</mask>
<clipPath id="clip33">
  <rect x="0" y="0" width="300" height="300"/>
</clipPath>
<g id="surface131" clip-path="url(#clip33)">
<path style=" stroke:none;fill-rule:nonzero;fill:rgb(1.568627%,0%,0%);fill-opacity:1;" d="M 149.992188 299.992188 C 232.839844 299.992188 300 232.832031 300 149.984375 C 300 108.5625 283.210938 71.058594 256.0625 43.914062 L 43.921875 256.058594 C 71.066406 283.203125 108.570312 299.992188 149.992188 299.992188 Z M 149.992188 299.992188 "/>
</g>
</defs>
<g id="surface1">
<path style=" stroke:none;fill-rule:nonzero;fill:rgb(22.352941%,61.176471%,33.72549%);fill-opacity:1;" d="M 299.984375 149.992188 C 299.984375 232.855469 232.855469 299.984375 149.992188 299.984375 C 131.867188 299.984375 114.511719 296.78125 98.417969 290.878906 C 96.117188 290.066406 93.816406 289.164062 91.609375 288.21875 C 89.355469 287.269531 87.144531 286.277344 84.980469 285.195312 C 84.9375 285.195312 84.9375 285.195312 84.9375 285.195312 C 82.726562 284.117188 80.609375 283.03125 78.488281 281.90625 C 74.34375 279.652344 70.285156 277.171875 66.363281 274.558594 C 66.273438 274.464844 66.183594 274.421875 66.136719 274.375 C 66.09375 274.375 66.09375 274.375 66.09375 274.375 C 64.109375 273.023438 62.125 271.628906 60.230469 270.183594 C 58.292969 268.742188 56.398438 267.253906 54.550781 265.765625 C 52.703125 264.234375 50.898438 262.65625 49.140625 261.03125 C 47.335938 259.410156 45.625 257.785156 43.910156 256.074219 C 37.058594 249.21875 30.835938 241.691406 25.425781 233.621094 C 21.550781 227.894531 18.121094 221.855469 15.101562 215.632812 C 5.410156 195.796875 0 173.523438 0 149.992188 C 0 67.128906 67.128906 0 149.992188 0 C 173.527344 0 195.796875 5.410156 215.632812 15.101562 C 220.863281 17.625 225.957031 20.46875 230.871094 23.621094 C 230.917969 23.621094 230.960938 23.667969 231.007812 23.710938 C 240.070312 29.527344 248.5 36.335938 256.074219 43.910156 C 257.785156 45.625 259.410156 47.335938 261.03125 49.140625 C 262.65625 50.898438 264.234375 52.703125 265.765625 54.550781 C 267.253906 56.398438 268.742188 58.292969 270.183594 60.230469 C 271.628906 62.125 273.023438 64.109375 274.378906 66.09375 C 274.378906 66.09375 274.378906 66.09375 274.378906 66.136719 C 275.054688 67.082031 275.683594 68.03125 276.269531 68.976562 C 276.316406 69.023438 276.363281 69.066406 276.363281 69.113281 C 276.773438 69.761719 277.132812 70.445312 277.535156 71.097656 C 279.070312 73.515625 280.542969 75.96875 281.90625 78.492188 C 283.035156 80.609375 284.117188 82.726562 285.199219 84.9375 C 285.199219 84.9375 285.199219 84.9375 285.199219 84.980469 C 286.28125 87.144531 287.273438 89.355469 288.21875 91.609375 C 289.164062 93.816406 290.066406 96.117188 290.878906 98.417969 C 296.78125 114.511719 299.984375 131.867188 299.984375 149.992188 Z M 299.984375 149.992188 "/>
<path style=" stroke:none;fill-rule:nonzero;fill:rgb(22.352941%,61.176471%,33.72549%);fill-opacity:1;" d="M 149.992188 292.785156 C 71.25 292.785156 7.191406 228.726562 7.191406 149.984375 C 7.191406 71.246094 71.253906 7.1875 149.992188 7.1875 C 228.730469 7.1875 292.792969 71.246094 292.792969 149.984375 C 292.792969 228.726562 228.730469 292.785156 149.992188 292.785156 Z M 149.992188 292.785156 "/>
<path style=" stroke:none;fill-rule:nonzero;fill:rgb(90.980392%,95.294118%,91.372549%);fill-opacity:1;" d="M 149.992188 292.976562 C 71.144531 292.976562 7.003906 228.828125 7.003906 149.984375 C 7.003906 71.140625 71.144531 6.996094 149.992188 6.996094 C 228.835938 6.996094 292.980469 71.140625 292.980469 149.984375 C 292.980469 228.828125 228.835938 292.976562 149.992188 292.976562 Z M 149.992188 292.976562 "/>
<path style=" stroke:none;fill-rule:nonzero;fill:rgb(94.901961%,97.647059%,95.294118%);fill-opacity:1;" d="M 149.992188 285.765625 C 75.121094 285.765625 14.210938 224.855469 14.210938 149.984375 C 14.210938 75.113281 75.121094 14.203125 149.992188 14.203125 C 224.859375 14.203125 285.773438 75.113281 285.773438 149.984375 C 285.773438 224.855469 224.863281 285.765625 149.992188 285.765625 Z M 149.992188 285.765625 "/>
<path style=" stroke:none;fill-rule:nonzero;fill:rgb(99.215686%,93.72549%,81.960784%);fill-opacity:1;" d="M 149.992188 275.21875 C 80.9375 275.21875 24.757812 219.039062 24.757812 149.984375 C 24.757812 80.933594 80.9375 24.753906 149.992188 24.753906 C 219.046875 24.753906 275.226562 80.933594 275.226562 149.984375 C 275.226562 219.039062 219.046875 275.21875 149.992188 275.21875 Z M 149.992188 275.21875 "/>
<path style=" stroke:none;fill-rule:nonzero;fill:rgb(91.372549%,36.470588%,38.823529%);fill-opacity:1;" d="M 149.992188 270.414062 C 83.585938 270.414062 29.5625 216.390625 29.5625 149.984375 C 29.5625 83.582031 83.585938 29.558594 149.992188 29.558594 C 216.394531 29.558594 270.417969 83.582031 270.417969 149.984375 C 270.417969 216.386719 216.394531 270.414062 149.992188 270.414062 Z M 149.992188 270.414062 "/>
<path style=" stroke:none;fill-rule:nonzero;fill:rgb(91.372549%,36.470588%,38.823529%);fill-opacity:1;" d="M 149.679688 235.285156 C 102.484375 235.285156 64.089844 196.890625 64.089844 149.695312 C 64.089844 102.503906 102.484375 64.109375 149.679688 64.109375 C 196.871094 64.109375 235.265625 102.503906 235.265625 149.695312 C 235.265625 196.890625 196.871094 235.285156 149.679688 235.285156 Z M 149.679688 235.285156 "/>
<use xlink:href="#surface5" mask="url(#mask0)"/>
<path style=" stroke:none;fill-rule:nonzero;fill:rgb(21.960784%,21.960784%,21.960784%);fill-opacity:1;" d="M 146.1875 228.617188 C 144.53125 228.546875 142.511719 231.988281 142.199219 235.179688 C 141.90625 238.339844 143.09375 241.074219 145.640625 241.199219 C 148.1875 241.265625 149.609375 238.710938 149.589844 235.523438 C 149.5625 232.332031 147.851562 228.65625 146.1875 228.617188 Z M 146.1875 228.617188 "/>
<path style=" stroke:none;fill-rule:nonzero;fill:rgb(28.235294%,27.843137%,27.843137%);fill-opacity:1;" d="M 147.003906 233.238281 C 146.972656 234.324219 146.0625 235.210938 144.972656 235.15625 C 143.886719 235.070312 143.074219 234.121094 143.164062 233.027344 C 143.253906 231.9375 144.160156 231.117188 145.1875 231.195312 C 146.21875 231.25 147.035156 232.136719 147.003906 233.238281 Z M 147.003906 233.238281 "/>
<use xlink:href="#surface9" mask="url(#mask1)"/>
<path style=" stroke:none;fill-rule:nonzero;fill:rgb(21.960784%,21.960784%,21.960784%);fill-opacity:1;" d="M 120.773438 223.203125 C 119.214844 222.625 116.1875 225.21875 114.855469 228.113281 C 113.542969 231.007812 113.761719 234.007812 116.148438 234.917969 C 118.511719 235.886719 120.71875 233.839844 121.738281 230.828125 C 122.746094 227.804688 122.304688 223.847656 120.773438 223.203125 Z M 120.773438 223.203125 "/>
<path style=" stroke:none;fill-rule:nonzero;fill:rgb(28.235294%,27.843137%,27.843137%);fill-opacity:1;" d="M 120.027344 227.855469 C 119.640625 228.878906 118.507812 229.386719 117.492188 228.984375 C 116.46875 228.601562 116.023438 227.410156 116.464844 226.410156 C 116.90625 225.40625 118.019531 224.953125 118.984375 225.3125 C 119.945312 225.691406 120.410156 226.832031 120.027344 227.855469 Z M 120.027344 227.855469 "/>
<use xlink:href="#surface13" mask="url(#mask2)"/>
<path style=" stroke:none;fill-rule:nonzero;fill:rgb(21.960784%,21.960784%,21.960784%);fill-opacity:1;" d="M 98.492188 209.804688 C 97.851562 209.25 96.609375 209.375 95.234375 209.914062 C 93.875 210.441406 92.390625 211.363281 91.300781 212.535156 C 90.210938 213.703125 89.472656 214.992188 89.25 216.21875 C 89.039062 217.425781 89.359375 218.558594 90.316406 219.386719 C 92.234375 221.070312 95.003906 219.832031 96.929688 217.328125 C 97.914062 216.070312 98.601562 214.445312 98.90625 213.023438 C 99.195312 211.609375 99.121094 210.367188 98.492188 209.804688 Z M 98.492188 209.804688 "/>
<path style=" stroke:none;fill-rule:nonzero;fill:rgb(28.235294%,27.843137%,27.843137%);fill-opacity:1;" d="M 96.269531 213.96875 C 95.574219 214.8125 94.339844 214.917969 93.515625 214.203125 C 92.691406 213.484375 92.617188 212.261719 93.371094 211.445312 C 94.101562 210.648438 95.34375 210.539062 96.121094 211.214844 C 96.902344 211.890625 96.96875 213.125 96.269531 213.96875 Z M 96.269531 213.96875 "/>
<use xlink:href="#surface17" mask="url(#mask3)"/>
<path style=" stroke:none;fill-rule:nonzero;fill:rgb(21.960784%,21.960784%,21.960784%);fill-opacity:1;" d="M 81.714844 189.917969 C 80.890625 188.476562 76.828125 188.71875 74.027344 190.183594 C 71.1875 191.6875 69.613281 194.140625 70.886719 196.351562 C 72.1875 198.546875 75.171875 198.289062 77.816406 196.535156 C 80.484375 194.753906 82.542969 191.355469 81.714844 189.917969 Z M 81.714844 189.917969 "/>
<path style=" stroke:none;fill-rule:nonzero;fill:rgb(28.235294%,27.843137%,27.843137%);fill-opacity:1;" d="M 78.273438 193.144531 C 77.328125 193.726562 76.140625 193.417969 75.59375 192.476562 C 75.046875 191.53125 75.386719 190.339844 76.347656 189.816406 C 77.308594 189.292969 78.507812 189.59375 79.023438 190.488281 C 79.539062 191.378906 79.191406 192.578125 78.273438 193.144531 Z M 78.273438 193.144531 "/>
<use xlink:href="#surface21" mask="url(#mask4)"/>
<path style=" stroke:none;fill-rule:nonzero;fill:rgb(21.960784%,21.960784%,21.960784%);fill-opacity:1;" d="M 72.300781 165.695312 C 72 164.0625 68.121094 162.957031 64.964844 163.433594 C 61.816406 163.921875 59.5 165.730469 59.964844 168.242188 C 60.539062 170.730469 63.367188 171.480469 66.457031 170.679688 C 69.542969 169.863281 72.675781 167.308594 72.300781 165.695312 Z M 72.300781 165.695312 "/>
<path style=" stroke:none;fill-rule:nonzero;fill:rgb(28.235294%,27.843137%,27.843137%);fill-opacity:1;" d="M 68.023438 167.613281 C 66.96875 167.847656 65.855469 167.191406 65.683594 166.113281 C 65.492188 165.039062 66.210938 164.019531 67.292969 163.839844 C 68.371094 163.660156 69.394531 164.335938 69.574219 165.351562 C 69.734375 166.371094 69.105469 167.371094 68.023438 167.613281 Z M 68.023438 167.613281 "/>
<use xlink:href="#surface25" mask="url(#mask5)"/>
<path style=" stroke:none;fill-rule:nonzero;fill:rgb(21.960784%,21.960784%,21.960784%);fill-opacity:1;" d="M 71.328125 139.703125 C 71.441406 138.867188 70.625 137.894531 69.449219 137.042969 C 68.277344 136.195312 66.675781 135.457031 65.105469 135.1875 C 61.96875 134.628906 59.125 135.582031 58.832031 138.121094 C 58.476562 140.648438 61.007812 142.28125 64.175781 142.523438 C 67.351562 142.753906 71.082031 141.347656 71.328125 139.703125 Z M 71.328125 139.703125 "/>
<path style=" stroke:none;fill-rule:nonzero;fill:rgb(28.235294%,27.843137%,27.843137%);fill-opacity:1;" d="M 66.632812 140.132812 C 65.546875 140.011719 64.777344 139.039062 64.914062 137.953125 C 65.035156 136.867188 66.066406 136.144531 67.152344 136.324219 C 68.226562 136.5 68.953125 137.46875 68.839844 138.496094 C 68.710938 139.519531 67.722656 140.25 66.632812 140.132812 Z M 66.632812 140.132812 "/>
<use xlink:href="#surface29" mask="url(#mask6)"/>
<path style=" stroke:none;fill-rule:nonzero;fill:rgb(21.960784%,21.960784%,21.960784%);fill-opacity:1;" d="M 78.808594 114.824219 C 79.574219 113.351562 77.15625 110.070312 74.402344 108.515625 C 71.597656 106.953125 68.683594 106.972656 67.519531 109.242188 C 66.390625 111.53125 68.226562 113.894531 71.136719 115.15625 C 74.085938 116.421875 78.058594 116.304688 78.808594 114.824219 Z M 78.808594 114.824219 "/>
<path style=" stroke:none;fill-rule:nonzero;fill:rgb(28.235294%,27.843137%,27.843137%);fill-opacity:1;" d="M 74.234375 113.691406 C 73.230469 113.214844 72.835938 112.050781 73.332031 111.078125 C 73.832031 110.109375 75.015625 109.742188 75.976562 110.265625 C 76.9375 110.789062 77.335938 111.957031 76.867188 112.875 C 76.394531 113.792969 75.207031 114.15625 74.234375 113.691406 Z M 74.234375 113.691406 "/>
<use xlink:href="#surface33" mask="url(#mask7)"/>
<path style=" stroke:none;fill-rule:nonzero;fill:rgb(21.960784%,21.960784%,21.960784%);fill-opacity:1;" d="M 94 93.707031 C 95.207031 92.5625 93.996094 88.695312 91.871094 86.316406 C 89.734375 83.949219 86.964844 83.011719 85.121094 84.773438 C 83.34375 86.601562 84.277344 89.394531 86.632812 91.539062 C 89.003906 93.683594 92.839844 94.894531 94 93.707031 Z M 94 93.707031 "/>
<path style=" stroke:none;fill-rule:nonzero;fill:rgb(28.235294%,27.843137%,27.843137%);fill-opacity:1;" d="M 90.050781 91.171875 C 89.265625 90.40625 89.230469 89.136719 90.03125 88.398438 C 90.820312 87.644531 92.0625 87.6875 92.804688 88.488281 C 93.546875 89.292969 93.542969 90.523438 92.796875 91.238281 C 92.039062 91.9375 90.832031 91.933594 90.050781 91.171875 Z M 90.050781 91.171875 "/>
<use xlink:href="#surface37" mask="url(#mask8)"/>
<path style=" stroke:none;fill-rule:nonzero;fill:rgb(21.960784%,21.960784%,21.960784%);fill-opacity:1;" d="M 115.199219 78.625 C 116.699219 77.917969 116.820312 73.902344 115.578125 70.957031 C 114.328125 68.027344 111.992188 66.21875 109.683594 67.304688 C 107.410156 68.464844 107.382812 71.390625 108.921875 74.183594 C 110.46875 76.972656 113.722656 79.386719 115.199219 78.625 Z M 115.199219 78.625 "/>
<path style=" stroke:none;fill-rule:nonzero;fill:rgb(28.235294%,27.843137%,27.843137%);fill-opacity:1;" d="M 112.28125 74.953125 C 111.792969 73.988281 112.160156 72.753906 113.15625 72.3125 C 114.148438 71.859375 115.3125 72.308594 115.753906 73.308594 C 116.195312 74.308594 115.792969 75.46875 114.851562 75.890625 C 113.910156 76.3125 112.78125 75.941406 112.28125 74.953125 Z M 112.28125 74.953125 "/>
<use xlink:href="#surface41" mask="url(#mask9)"/>
<path style=" stroke:none;fill-rule:nonzero;fill:rgb(21.960784%,21.960784%,21.960784%);fill-opacity:1;" d="M 140.125 71.289062 C 141.769531 71.035156 143.203125 67.359375 142.988281 64.15625 C 142.867188 62.566406 142.417969 61.152344 141.667969 60.160156 C 140.917969 59.15625 139.867188 58.609375 138.613281 58.785156 C 137.355469 58.945312 136.464844 59.710938 135.96875 60.832031 C 135.480469 61.980469 135.382812 63.464844 135.644531 65.039062 C 135.90625 66.613281 136.632812 68.203125 137.476562 69.394531 C 138.324219 70.605469 139.289062 71.398438 140.125 71.289062 Z M 140.125 71.289062 "/>
<path style=" stroke:none;fill-rule:nonzero;fill:rgb(28.235294%,27.843137%,27.843137%);fill-opacity:1;" d="M 138.566406 66.851562 C 138.417969 65.765625 139.175781 64.773438 140.257812 64.636719 C 141.339844 64.484375 142.296875 65.351562 142.386719 66.425781 C 142.480469 67.53125 141.710938 68.429688 140.691406 68.578125 C 139.667969 68.707031 138.714844 67.933594 138.566406 66.851562 Z M 138.566406 66.851562 "/>
<use xlink:href="#surface45" mask="url(#mask10)"/>
<path style=" stroke:none;fill-rule:nonzero;fill:rgb(21.960784%,21.960784%,21.960784%);fill-opacity:1;" d="M 166.109375 72.417969 C 167.722656 72.796875 170.300781 69.664062 171.128906 66.585938 C 171.949219 63.5 171.210938 60.671875 168.722656 60.101562 C 166.222656 59.589844 164.390625 61.933594 163.886719 65.070312 C 163.394531 68.234375 164.488281 72.074219 166.109375 72.417969 Z M 166.109375 72.417969 "/>
<path style=" stroke:none;fill-rule:nonzero;fill:rgb(28.235294%,27.843137%,27.843137%);fill-opacity:1;" d="M 166.070312 67.710938 C 166.285156 66.625 167.320312 65.933594 168.382812 66.191406 C 169.445312 66.4375 170.089844 67.496094 169.820312 68.558594 C 169.550781 69.617188 168.519531 70.289062 167.515625 70.058594 C 166.511719 69.816406 165.863281 68.773438 166.070312 67.710938 Z M 166.070312 67.710938 "/>
<use xlink:href="#surface49" mask="url(#mask11)"/>
<path style=" stroke:none;fill-rule:nonzero;fill:rgb(21.960784%,21.960784%,21.960784%);fill-opacity:1;" d="M 190.285156 81.953125 C 191.699219 82.824219 195.132812 80.742188 196.925781 78.09375 C 198.699219 75.453125 198.949219 72.503906 196.777344 71.164062 C 194.570312 69.890625 192.101562 71.457031 190.59375 74.269531 C 189.097656 77.085938 188.84375 81.128906 190.285156 81.953125 Z M 190.285156 81.953125 "/>
<path style=" stroke:none;fill-rule:nonzero;fill:rgb(28.235294%,27.843137%,27.843137%);fill-opacity:1;" d="M 191.777344 77.507812 C 192.320312 76.570312 193.550781 76.210938 194.472656 76.800781 C 195.390625 77.390625 195.648438 78.609375 195.050781 79.527344 C 194.449219 80.441406 193.257812 80.730469 192.390625 80.171875 C 191.523438 79.617188 191.222656 78.464844 191.777344 77.507812 Z M 191.777344 77.507812 "/>
<use xlink:href="#surface53" mask="url(#mask12)"/>
<path style=" stroke:none;fill-rule:nonzero;fill:rgb(21.960784%,21.960784%,21.960784%);fill-opacity:1;" d="M 210.074219 98.84375 C 211.164062 100.101562 215.050781 99.265625 217.609375 97.332031 C 220.128906 95.410156 221.351562 92.671875 219.703125 90.726562 C 218.039062 88.792969 215.195312 89.480469 212.847656 91.667969 C 210.542969 93.832031 208.988281 97.589844 210.074219 98.84375 Z M 210.074219 98.84375 "/>
<path style=" stroke:none;fill-rule:nonzero;fill:rgb(28.235294%,27.843137%,27.843137%);fill-opacity:1;" d="M 212.929688 95.113281 C 213.753906 94.394531 215.003906 94.476562 215.714844 95.304688 C 216.390625 96.164062 216.238281 97.40625 215.375 98.078125 C 214.511719 98.75 213.296875 98.640625 212.660156 97.828125 C 211.984375 97.046875 212.101562 95.832031 212.929688 95.113281 Z M 212.929688 95.113281 "/>
<use xlink:href="#surface57" mask="url(#mask13)"/>
<path style=" stroke:none;fill-rule:nonzero;fill:rgb(21.960784%,21.960784%,21.960784%);fill-opacity:1;" d="M 223.347656 121.203125 C 223.996094 122.730469 227.914062 123.210938 230.964844 122.214844 C 232.476562 121.703125 233.734375 120.921875 234.511719 119.949219 C 235.296875 118.972656 235.566406 117.820312 235.089844 116.644531 C 234.621094 115.46875 233.667969 114.789062 232.449219 114.59375 C 231.214844 114.402344 229.753906 114.675781 228.292969 115.316406 C 226.832031 115.960938 225.464844 117.058594 224.527344 118.167969 C 223.566406 119.289062 223.039062 120.417969 223.347656 121.203125 Z M 223.347656 121.203125 "/>
<path style=" stroke:none;fill-rule:nonzero;fill:rgb(28.235294%,27.843137%,27.843137%);fill-opacity:1;" d="M 227.265625 118.597656 C 228.277344 118.183594 229.425781 118.671875 229.828125 119.6875 C 230.238281 120.699219 229.640625 121.839844 228.617188 122.191406 C 227.570312 122.554688 226.507812 122.035156 226.117188 121.082031 C 225.734375 120.121094 226.25 119.007812 227.265625 118.597656 Z M 227.265625 118.597656 "/>
<use xlink:href="#surface61" mask="url(#mask14)"/>
<path style=" stroke:none;fill-rule:nonzero;fill:rgb(21.960784%,21.960784%,21.960784%);fill-opacity:1;" d="M 228.609375 146.652344 C 228.644531 148.316406 232.335938 150.042969 235.496094 150.09375 C 238.707031 150.128906 241.261719 148.722656 241.195312 146.175781 C 241.117188 143.625 238.347656 142.425781 235.195312 142.699219 C 231.996094 142.996094 228.589844 144.992188 228.609375 146.652344 Z M 228.609375 146.652344 "/>
<path style=" stroke:none;fill-rule:nonzero;fill:rgb(28.235294%,27.843137%,27.843137%);fill-opacity:1;" d="M 233.179688 145.464844 C 234.273438 145.402344 235.183594 146.238281 235.210938 147.332031 C 235.238281 148.421875 234.371094 149.308594 233.277344 149.308594 C 232.183594 149.308594 231.273438 148.472656 231.246094 147.4375 C 231.222656 146.40625 232.089844 145.523438 233.179688 145.464844 Z M 233.179688 145.464844 "/>
<use xlink:href="#surface65" mask="url(#mask15)"/>
<path style=" stroke:none;fill-rule:nonzero;fill:rgb(21.960784%,21.960784%,21.960784%);fill-opacity:1;" d="M 225.335938 172.445312 C 224.871094 174.039062 227.695312 176.839844 230.710938 177.929688 C 233.699219 178.996094 236.65625 178.523438 237.390625 176.078125 C 238.089844 173.625 235.980469 171.625 232.863281 170.851562 C 229.789062 170.105469 225.78125 170.847656 225.335938 172.445312 Z M 225.335938 172.445312 "/>
<path style=" stroke:none;fill-rule:nonzero;fill:rgb(28.235294%,27.843137%,27.843137%);fill-opacity:1;" d="M 230.015625 172.796875 C 231.066406 173.09375 231.6875 174.191406 231.375 175.238281 C 231.027344 176.269531 229.902344 176.820312 228.867188 176.464844 C 227.832031 176.109375 227.261719 175.027344 227.59375 174.050781 C 227.886719 173.0625 228.960938 172.5 230.015625 172.796875 Z M 230.015625 172.796875 "/>
<use xlink:href="#surface69" mask="url(#mask16)"/>
<path style=" stroke:none;fill-rule:nonzero;fill:rgb(21.960784%,21.960784%,21.960784%);fill-opacity:1;" d="M 213.8125 195.746094 C 212.882812 197.125 214.621094 200.675781 217.121094 202.6875 C 218.371094 203.671875 219.714844 204.300781 220.953125 204.421875 C 222.195312 204.550781 223.3125 204.148438 224.035156 203.105469 C 225.535156 201.042969 224.128906 198.425781 221.445312 196.6875 C 220.113281 195.8125 218.441406 195.261719 217.003906 195.082031 C 215.539062 194.886719 214.304688 195.058594 213.8125 195.746094 Z M 213.8125 195.746094 "/>
<path style=" stroke:none;fill-rule:nonzero;fill:rgb(28.235294%,27.843137%,27.843137%);fill-opacity:1;" d="M 218.136719 197.609375 C 219.035156 198.234375 219.25 199.460938 218.617188 200.351562 C 217.992188 201.246094 216.710938 201.371094 215.855469 200.707031 C 214.984375 200.023438 214.835938 198.847656 215.425781 198 C 216.023438 197.160156 217.238281 196.984375 218.136719 197.609375 Z M 218.136719 197.609375 "/>
<use xlink:href="#surface73" mask="url(#mask17)"/>
<path style=" stroke:none;fill-rule:nonzero;fill:rgb(21.960784%,21.960784%,21.960784%);fill-opacity:1;" d="M 195.367188 214.089844 C 194.03125 215.082031 194.554688 219.035156 196.261719 221.726562 C 197.972656 224.402344 200.605469 225.855469 202.667969 224.351562 C 204.765625 222.898438 204.253906 219.933594 202.285156 217.4375 C 200.300781 214.941406 196.738281 213.15625 195.367188 214.089844 Z M 195.367188 214.089844 "/>
<path style=" stroke:none;fill-rule:nonzero;fill:rgb(28.235294%,27.843137%,27.843137%);fill-opacity:1;" d="M 198.859375 217.25 C 199.511719 218.132812 199.316406 219.359375 198.425781 219.992188 C 197.546875 220.640625 196.304688 220.363281 195.707031 219.449219 C 195.105469 218.53125 195.332031 217.351562 196.164062 216.738281 C 197.003906 216.140625 198.210938 216.371094 198.859375 217.25 Z M 198.859375 217.25 "/>
<use xlink:href="#surface77" mask="url(#mask18)"/>
<path style=" stroke:none;fill-rule:nonzero;fill:rgb(21.960784%,21.960784%,21.960784%);fill-opacity:1;" d="M 172 225.472656 C 170.40625 225.9375 169.632812 229.910156 170.359375 232.988281 C 171.113281 236.109375 173.113281 238.269531 175.5625 237.554688 C 178.023438 236.863281 178.5 233.871094 177.453125 230.886719 C 176.933594 229.378906 175.945312 227.914062 174.917969 226.882812 C 173.890625 225.863281 172.816406 225.257812 172 225.472656 Z M 172 225.472656 "/>
<path style=" stroke:none;fill-rule:nonzero;fill:rgb(28.235294%,27.843137%,27.843137%);fill-opacity:1;" d="M 174.277344 229.609375 C 174.605469 230.652344 174.019531 231.742188 172.96875 232.042969 C 171.917969 232.339844 170.847656 231.722656 170.578125 230.660156 C 170.308594 229.601562 170.894531 228.511719 171.886719 228.226562 C 172.882812 227.945312 173.949219 228.566406 174.277344 229.609375 Z M 174.277344 229.609375 "/>
<path style=" stroke:none;fill-rule:nonzero;fill:rgb(91.372549%,36.470588%,38.823529%);fill-opacity:1;" d="M 149.453125 200.230469 C 121.46875 200.230469 98.703125 177.460938 98.703125 149.480469 C 98.703125 121.496094 121.46875 98.730469 149.453125 98.730469 C 177.4375 98.730469 200.203125 121.496094 200.203125 149.480469 C 200.203125 177.464844 177.4375 200.230469 149.453125 200.230469 Z M 149.453125 200.230469 "/>
<use xlink:href="#surface81" mask="url(#mask19)"/>
<path style=" stroke:none;fill-rule:nonzero;fill:rgb(21.960784%,21.960784%,21.960784%);fill-opacity:1;" d="M 146.089844 193.472656 C 145.679688 193.449219 145.25 193.667969 144.820312 194.027344 C 144.394531 194.351562 143.96875 194.84375 143.566406 195.441406 C 142.761719 196.636719 142.046875 198.253906 141.808594 199.828125 C 141.566406 201.40625 141.695312 202.886719 142.25 204.027344 C 142.800781 205.171875 143.78125 206 145.136719 206.03125 C 147.875 206.175781 149.394531 203.652344 149.363281 200.460938 C 149.363281 198.867188 148.902344 197.136719 148.289062 195.800781 C 147.671875 194.460938 146.902344 193.511719 146.089844 193.472656 Z M 146.089844 193.472656 "/>
<path style=" stroke:none;fill-rule:nonzero;fill:rgb(28.235294%,27.843137%,27.843137%);fill-opacity:1;" d="M 146.761719 198.109375 C 146.710938 199.203125 145.757812 200.046875 144.640625 199.988281 C 143.523438 199.894531 142.757812 198.824219 142.910156 197.757812 C 143.066406 196.65625 144 195.957031 145.015625 196.042969 C 146.03125 196.089844 146.8125 197.019531 146.761719 198.109375 Z M 146.761719 198.109375 "/>
<use xlink:href="#surface85" mask="url(#mask20)"/>
<path style=" stroke:none;fill-rule:nonzero;fill:rgb(21.960784%,21.960784%,21.960784%);fill-opacity:1;" d="M 122.867188 184.65625 C 122.226562 184.152344 120.960938 184.425781 119.65625 184.96875 C 118.335938 185.53125 116.867188 186.496094 115.808594 187.691406 C 113.691406 190.042969 113.023438 193.09375 115.257812 194.691406 C 116.34375 195.503906 117.566406 195.613281 118.714844 195.152344 C 119.894531 194.652344 120.976562 193.621094 121.84375 192.28125 C 122.710938 190.933594 123.226562 189.28125 123.425781 187.84375 C 123.640625 186.371094 123.519531 185.144531 122.867188 184.65625 Z M 122.867188 184.65625 "/>
<path style=" stroke:none;fill-rule:nonzero;fill:rgb(28.235294%,27.843137%,27.843137%);fill-opacity:1;" d="M 120.90625 188.933594 C 120.269531 189.824219 119.027344 190 118.128906 189.332031 C 117.207031 188.6875 117.136719 187.382812 117.851562 186.554688 C 118.570312 185.726562 119.742188 185.636719 120.582031 186.21875 C 121.398438 186.824219 121.542969 188.042969 120.90625 188.933594 Z M 120.90625 188.933594 "/>
<use xlink:href="#surface89" mask="url(#mask21)"/>
<path style=" stroke:none;fill-rule:nonzero;fill:rgb(21.960784%,21.960784%,21.960784%);fill-opacity:1;" d="M 108.046875 164.683594 C 107.769531 163.921875 106.621094 163.453125 105.152344 163.226562 C 103.746094 162.988281 101.992188 163.007812 100.457031 163.441406 C 98.925781 163.878906 97.621094 164.613281 96.800781 165.597656 C 95.992188 166.570312 95.773438 167.761719 96.230469 169.039062 C 96.710938 170.308594 97.632812 171.082031 98.902344 171.289062 C 100.164062 171.503906 101.628906 171.21875 103.082031 170.554688 C 104.53125 169.890625 105.878906 168.761719 106.796875 167.667969 C 107.742188 166.558594 108.335938 165.445312 108.046875 164.683594 Z M 108.046875 164.683594 "/>
<path style=" stroke:none;fill-rule:nonzero;fill:rgb(28.235294%,27.843137%,27.843137%);fill-opacity:1;" d="M 104.082031 167.234375 C 103.066406 167.644531 101.929688 167.121094 101.542969 166.070312 C 101.144531 165.019531 101.707031 163.90625 102.785156 163.589844 C 103.808594 163.289062 104.921875 163.816406 105.285156 164.769531 C 105.640625 165.722656 105.097656 166.828125 104.082031 167.234375 Z M 104.082031 167.234375 "/>
<use xlink:href="#surface93" mask="url(#mask22)"/>
<path style=" stroke:none;fill-rule:nonzero;fill:rgb(21.960784%,21.960784%,21.960784%);fill-opacity:1;" d="M 106.367188 139.886719 C 106.574219 139.101562 105.898438 138.09375 104.800781 137.113281 C 103.703125 136.140625 102.1875 135.199219 100.660156 134.730469 C 97.617188 133.773438 94.753906 134.488281 94.074219 137.152344 C 93.992188 137.480469 93.949219 137.800781 93.957031 138.105469 C 93.984375 138.417969 94.054688 138.71875 94.15625 139 C 94.363281 139.570312 94.714844 140.074219 95.175781 140.503906 C 96.101562 141.363281 97.476562 141.914062 99.054688 142.144531 C 100.636719 142.371094 102.394531 142.15625 103.777344 141.734375 C 105.179688 141.3125 106.117188 140.667969 106.367188 139.886719 Z M 106.367188 139.886719 "/>
<path style=" stroke:none;fill-rule:nonzero;fill:rgb(28.235294%,27.843137%,27.843137%);fill-opacity:1;" d="M 101.644531 139.882812 C 100.539062 139.671875 99.902344 138.625 100.179688 137.539062 C 100.460938 136.453125 101.539062 135.820312 102.589844 136.128906 C 103.640625 136.4375 104.285156 137.488281 104.03125 138.472656 C 103.777344 139.457031 102.6875 140.085938 101.644531 139.882812 Z M 101.644531 139.882812 "/>
<use xlink:href="#surface97" mask="url(#mask23)"/>
<path style=" stroke:none;fill-rule:nonzero;fill:rgb(21.960784%,21.960784%,21.960784%);fill-opacity:1;" d="M 118.398438 118.121094 C 119.003906 117.574219 118.988281 116.367188 118.601562 114.957031 C 118.207031 113.546875 117.441406 111.9375 116.410156 110.722656 C 114.363281 108.277344 111.558594 107.320312 109.535156 109.171875 C 107.648438 111.160156 108.609375 114.007812 111.03125 116.070312 C 112.234375 117.113281 113.832031 117.890625 115.234375 118.292969 C 116.644531 118.695312 117.820312 118.695312 118.398438 118.121094 Z M 118.398438 118.121094 "/>
<path style=" stroke:none;fill-rule:nonzero;fill:rgb(28.235294%,27.843137%,27.843137%);fill-opacity:1;" d="M 114.457031 115.59375 C 113.664062 114.835938 113.617188 113.53125 114.46875 112.804688 C 115.300781 112.050781 116.554688 112.109375 117.269531 112.933594 C 117.988281 113.761719 117.960938 114.988281 117.207031 115.671875 C 116.425781 116.332031 115.246094 116.347656 114.457031 115.59375 Z M 114.457031 115.59375 "/>
<use xlink:href="#surface101" mask="url(#mask24)"/>
<path style=" stroke:none;fill-rule:nonzero;fill:rgb(21.960784%,21.960784%,21.960784%);fill-opacity:1;" d="M 140.277344 106.285156 C 141.070312 106.101562 141.71875 105.136719 142.15625 103.734375 C 142.585938 102.347656 142.816406 100.589844 142.609375 99.007812 C 142.21875 95.855469 140.363281 93.464844 137.664062 93.964844 C 135 94.640625 134.257812 97.511719 135.1875 100.5625 C 135.636719 102.09375 136.5625 103.613281 137.523438 104.714844 C 138.492188 105.8125 139.488281 106.492188 140.277344 106.285156 Z M 140.277344 106.285156 "/>
<path style=" stroke:none;fill-rule:nonzero;fill:rgb(28.235294%,27.843137%,27.843137%);fill-opacity:1;" d="M 138.332031 102.039062 C 138.082031 101.003906 138.734375 99.828125 139.84375 99.667969 C 140.953125 99.5 141.976562 100.238281 142.132812 101.320312 C 142.289062 102.40625 141.601562 103.410156 140.59375 103.558594 C 139.585938 103.699219 138.597656 103.132812 138.332031 102.039062 Z M 138.332031 102.039062 "/>
<use xlink:href="#surface105" mask="url(#mask25)"/>
<path style=" stroke:none;fill-rule:nonzero;fill:rgb(21.960784%,21.960784%,21.960784%);fill-opacity:1;" d="M 165.0625 108.21875 C 165.820312 108.511719 166.953125 107.894531 168.050781 107.019531 C 169.15625 106.109375 170.296875 104.765625 170.976562 103.320312 C 171.652344 101.878906 171.949219 100.417969 171.746094 99.160156 C 171.558594 97.875 170.808594 96.90625 169.535156 96.445312 C 168.261719 95.976562 167.050781 96.226562 166.082031 96.984375 C 165.105469 97.753906 164.34375 99.089844 163.898438 100.605469 C 163.441406 102.15625 163.425781 103.84375 163.625 105.332031 C 163.835938 106.800781 164.296875 107.941406 165.0625 108.21875 Z M 165.0625 108.21875 "/>
<path style=" stroke:none;fill-rule:nonzero;fill:rgb(28.235294%,27.843137%,27.843137%);fill-opacity:1;" d="M 165.738281 103.566406 C 166.097656 102.53125 167.238281 102.007812 168.292969 102.394531 C 169.359375 102.742188 169.78125 104.011719 169.332031 104.992188 C 168.871094 106.003906 167.789062 106.382812 166.816406 106.070312 C 165.859375 105.722656 165.375 104.601562 165.738281 103.566406 Z M 165.738281 103.566406 "/>
<use xlink:href="#surface109" mask="url(#mask26)"/>
<path style=" stroke:none;fill-rule:nonzero;fill:rgb(21.960784%,21.960784%,21.960784%);fill-opacity:1;" d="M 184.886719 123.234375 C 185.363281 123.898438 186.636719 124 188.0625 123.832031 C 189.480469 123.660156 191.164062 123.144531 192.511719 122.292969 C 195.214844 120.621094 196.6875 117.890625 194.996094 115.726562 C 194.179688 114.644531 193.050781 114.1875 191.804688 114.320312 C 190.53125 114.472656 189.203125 115.160156 188 116.203125 C 186.792969 117.25 185.816406 118.707031 185.242188 120.015625 C 184.625 121.371094 184.398438 122.582031 184.886719 123.234375 Z M 184.886719 123.234375 "/>
<path style=" stroke:none;fill-rule:nonzero;fill:rgb(28.235294%,27.843137%,27.843137%);fill-opacity:1;" d="M 187.96875 119.671875 C 188.828125 118.996094 190.070312 119.175781 190.738281 120.074219 C 191.070312 120.519531 191.203125 121.042969 191.101562 121.542969 C 190.992188 122.050781 190.691406 122.511719 190.234375 122.8125 C 189.777344 123.109375 189.25 123.199219 188.777344 123.109375 C 188.292969 123.023438 187.820312 122.789062 187.515625 122.375 C 186.902344 121.5625 187.109375 120.351562 187.96875 119.671875 Z M 187.96875 119.671875 "/>
<use xlink:href="#surface113" mask="url(#mask27)"/>
<path style=" stroke:none;fill-rule:nonzero;fill:rgb(21.960784%,21.960784%,21.960784%);fill-opacity:1;" d="M 193.46875 146.542969 C 193.507812 147.359375 194.457031 148.132812 195.796875 148.765625 C 197.15625 149.390625 198.832031 149.867188 200.421875 149.882812 C 203.65625 149.945312 206.175781 148.453125 206.035156 145.710938 C 206 145.039062 205.804688 144.449219 205.484375 143.960938 C 205.160156 143.46875 204.644531 143.085938 204.082031 142.804688 C 202.941406 142.238281 201.457031 142.097656 199.878906 142.324219 C 198.300781 142.546875 196.683594 143.246094 195.484375 144.035156 C 194.328125 144.828125 193.421875 145.730469 193.46875 146.542969 Z M 193.46875 146.542969 "/>
<path style=" stroke:none;fill-rule:nonzero;fill:rgb(28.235294%,27.843137%,27.843137%);fill-opacity:1;" d="M 198.007812 145.21875 C 199.097656 145.117188 200.027344 145.941406 200.082031 147.058594 C 200.140625 148.179688 199.296875 149.085938 198.203125 149.085938 C 197.109375 149.089844 196.175781 148.265625 196.125 147.246094 C 196.070312 146.230469 196.917969 145.320312 198.007812 145.21875 Z M 198.007812 145.21875 "/>
<use xlink:href="#surface117" mask="url(#mask28)"/>
<path style=" stroke:none;fill-rule:nonzero;fill:rgb(21.960784%,21.960784%,21.960784%);fill-opacity:1;" d="M 188.101562 170.8125 C 187.671875 171.503906 188.03125 172.660156 188.800781 173.90625 C 189.574219 175.148438 190.757812 176.484375 192.089844 177.359375 C 194.738281 179.136719 197.695312 179.269531 199.113281 176.917969 C 200.390625 174.488281 198.644531 172.011719 195.75 170.71875 C 194.296875 170.050781 192.546875 169.757812 191.09375 169.765625 C 189.621094 169.769531 188.519531 170.109375 188.101562 170.8125 Z M 188.101562 170.8125 "/>
<path style=" stroke:none;fill-rule:nonzero;fill:rgb(28.235294%,27.843137%,27.843137%);fill-opacity:1;" d="M 192.601562 172.140625 C 193.085938 172.394531 193.429688 172.824219 193.585938 173.320312 C 193.726562 173.800781 193.648438 174.339844 193.363281 174.816406 C 192.78125 175.773438 191.5625 176.070312 190.640625 175.476562 C 189.722656 174.882812 189.402344 173.699219 189.933594 172.828125 C 190.199219 172.390625 190.640625 172.109375 191.125 171.984375 C 191.585938 171.847656 192.117188 171.882812 192.601562 172.140625 Z M 192.601562 172.140625 "/>
<use xlink:href="#surface121" mask="url(#mask29)"/>
<path style=" stroke:none;fill-rule:nonzero;fill:rgb(21.960784%,21.960784%,21.960784%);fill-opacity:1;" d="M 170.414062 188.34375 C 169.679688 188.695312 169.359375 189.855469 169.332031 191.316406 C 169.316406 192.777344 169.59375 194.535156 170.246094 195.988281 C 171.519531 198.914062 173.945312 200.625 176.414062 199.417969 C 178.777344 198.015625 178.664062 195.035156 176.910156 192.375 C 176.046875 191.035156 174.730469 189.839844 173.496094 189.0625 C 172.257812 188.28125 171.117188 187.929688 170.414062 188.34375 Z M 170.414062 188.34375 "/>
<path style=" stroke:none;fill-rule:nonzero;fill:rgb(28.235294%,27.843137%,27.843137%);fill-opacity:1;" d="M 173.484375 191.867188 C 174.027344 192.800781 173.722656 194.09375 172.695312 194.546875 C 171.683594 195.035156 170.496094 194.621094 170.039062 193.628906 C 169.582031 192.632812 169.953125 191.464844 170.871094 191.027344 C 171.808594 190.621094 172.929688 190.90625 173.484375 191.867188 Z M 173.484375 191.867188 "/>
<use xlink:href="#surface125" mask="url(#mask30)"/>
<use xlink:href="#surface128" mask="url(#mask31)"/>
<use xlink:href="#surface131" mask="url(#mask32)"/>
</g>
</svg>
